G04 DipTrace 4.3.0.1*
G04 PCB832 revX3_Panel Through.gbr*
%MOIN*%
G04 #@! TF.FileFunction,Plated,1,2,PTH,Drill*
G04 #@! TF.Part,Single*
G04 Drill Symbols*
G04 D=0.015 - Cross*
G04 D=0.035433 - X*
G04 D=0.042 - Y*
G04 D=0.047244 - T*
G04 D=0.047244 - V*
G04 D=0.1 - Clock*
%ADD10C,0.00787*%
%FSLAX26Y26*%
G04*
G70*
G90*
G75*
G01*
X3631400Y885000D2*
D10*
X3678600D1*
X3655000D2*
Y861400D1*
X2061400Y2883600D2*
X2108600Y2836400D1*
Y2883600D2*
X2061400Y2836400D1*
X2159825Y2883600D2*
X2207025Y2836400D1*
Y2883600D2*
X2159825Y2836400D1*
X111400Y2053600D2*
X135000Y2030000D1*
X158600Y2053600D1*
X135000Y2030000D2*
Y2006400D1*
X111400Y1953600D2*
X135000Y1930000D1*
X158600Y1953600D1*
X135000Y1930000D2*
Y1906400D1*
X111400Y1853600D2*
X135000Y1830000D1*
X158600Y1853600D1*
X135000Y1830000D2*
Y1806400D1*
X211400Y1853600D2*
X235000Y1830000D1*
X258600Y1853600D1*
X235000Y1830000D2*
Y1806400D1*
X211400Y1953600D2*
X235000Y1930000D1*
X258600Y1953600D1*
X235000Y1930000D2*
Y1906400D1*
X211400Y2053600D2*
X235000Y2030000D1*
X258600Y2053600D1*
X235000Y2030000D2*
Y2006400D1*
X3631400Y1035000D2*
X3678600D1*
X3655000D2*
Y1011400D1*
X3631400Y735000D2*
X3678600D1*
X3655000D2*
Y711400D1*
X1373447Y392183D2*
X1397047Y368583D1*
X1420647Y392183D1*
X1397047Y368583D2*
Y344983D1*
X1629353Y392183D2*
X1652953Y368583D1*
X1676553Y392183D1*
X1652953Y368583D2*
Y344983D1*
X1629353Y215017D2*
X1652953Y191417D1*
X1676553Y215017D1*
X1652953Y191417D2*
Y167817D1*
X1373447Y215017D2*
X1397047Y191417D1*
X1420647Y215017D1*
X1397047Y191417D2*
Y167817D1*
X683447Y392183D2*
X707047Y368583D1*
X730647Y392183D1*
X707047Y368583D2*
Y344983D1*
X939353Y392183D2*
X962953Y368583D1*
X986553Y392183D1*
X962953Y368583D2*
Y344983D1*
X939353Y215017D2*
X962953Y191417D1*
X986553Y215017D1*
X962953Y191417D2*
Y167817D1*
X683447Y215017D2*
X707047Y191417D1*
X730647Y215017D1*
X707047Y191417D2*
Y167817D1*
X2068445Y397180D2*
X2092045Y373580D1*
X2115645Y397180D1*
X2092045Y373580D2*
Y349980D1*
X2324351Y397185D2*
X2347951Y373585D1*
X2371551Y397185D1*
X2347951Y373585D2*
Y349985D1*
X2324355Y220020D2*
X2347955Y196420D1*
X2371555Y220020D1*
X2347955Y196420D2*
Y172820D1*
X2068449Y220015D2*
X2092049Y196415D1*
X2115649Y220015D1*
X2092049Y196415D2*
Y172815D1*
X2758444Y392178D2*
X2782044Y368578D1*
X2805644Y392178D1*
X2782044Y368578D2*
Y344978D1*
X3014350Y392187D2*
X3037950Y368587D1*
X3061550Y392187D1*
X3037950Y368587D2*
Y344987D1*
X3014356Y215022D2*
X3037956Y191422D1*
X3061556Y215022D1*
X3037956Y191422D2*
Y167822D1*
X2758450Y215013D2*
X2782050Y191413D1*
X2805650Y215013D1*
X2782050Y191413D2*
Y167813D1*
X2425000Y1828600D2*
Y1781400D1*
X2401400Y1805000D2*
X2448600D1*
X2425000Y1618600D2*
Y1571400D1*
X2401400Y1595000D2*
X2448600D1*
X770000Y2338600D2*
Y2291400D1*
X746400Y2315000D2*
X793600D1*
X2089055Y2279072D2*
Y2231872D1*
X2065455Y2255472D2*
X2112655D1*
X3245000Y1148600D2*
Y1101400D1*
X3221400Y1125000D2*
X3268600D1*
X3075000Y1318600D2*
Y1271400D1*
X3051400Y1295000D2*
X3098600D1*
X1695000Y1163600D2*
Y1116400D1*
X1671400Y1140000D2*
X1718600D1*
X1810000Y1163600D2*
Y1116400D1*
X1786400Y1140000D2*
X1833600D1*
X345000Y1428600D2*
Y1381400D1*
X321400Y1405000D2*
X368600D1*
X345000Y1893600D2*
Y1846400D1*
X321400Y1870000D2*
X368600D1*
X2525000Y1518600D2*
Y1471400D1*
X2501400Y1495000D2*
X2548600D1*
X2685000Y2208600D2*
Y2161400D1*
X2661400Y2185000D2*
X2708600D1*
X1695000Y1508600D2*
Y1461400D1*
X1671400Y1485000D2*
X1718600D1*
X1475000Y2058600D2*
Y2011400D1*
X1451400Y2035000D2*
X1498600D1*
X1290000Y723600D2*
Y676400D1*
X1266400Y700000D2*
X1313600D1*
X895000Y1503600D2*
Y1456400D1*
X871400Y1480000D2*
X918600D1*
X1700000Y2708600D2*
Y2661400D1*
X1676400Y2685000D2*
X1723600D1*
X850000Y998600D2*
Y951400D1*
X826400Y975000D2*
X873600D1*
X1205000Y568600D2*
Y521400D1*
X1181400Y545000D2*
X1228600D1*
X1100000Y1373600D2*
Y1326400D1*
X1076400Y1350000D2*
X1123600D1*
X1165000Y1488600D2*
Y1441400D1*
X1141400Y1465000D2*
X1188600D1*
X920000Y1433600D2*
Y1386400D1*
X896400Y1410000D2*
X943600D1*
X1380000Y1838600D2*
Y1791400D1*
X1356400Y1815000D2*
X1403600D1*
X1660000Y1213600D2*
Y1166400D1*
X1636400Y1190000D2*
X1683600D1*
X1520000Y1213600D2*
Y1166400D1*
X1496400Y1190000D2*
X1543600D1*
X1630000Y1123600D2*
Y1076400D1*
X1606400Y1100000D2*
X1653600D1*
X1775000Y1123600D2*
Y1076400D1*
X1751400Y1100000D2*
X1798600D1*
X1480000Y1271252D2*
Y1224052D1*
X1456400Y1247652D2*
X1503600D1*
X1619094Y1253600D2*
Y1206400D1*
X1595494Y1230000D2*
X1642694D1*
X745000Y1738600D2*
Y1691400D1*
X721400Y1715000D2*
X768600D1*
X745000Y1648600D2*
Y1601400D1*
X721400Y1625000D2*
X768600D1*
X385000Y1693600D2*
Y1646400D1*
X361400Y1670000D2*
X408600D1*
X385000Y1213600D2*
Y1166400D1*
X361400Y1190000D2*
X408600D1*
X290000Y1253600D2*
Y1206400D1*
X266400Y1230000D2*
X313600D1*
X1855000Y1258600D2*
Y1211400D1*
X1831400Y1235000D2*
X1878600D1*
X2050000Y1258600D2*
Y1211400D1*
X2026400Y1235000D2*
X2073600D1*
X780000Y1838600D2*
Y1791400D1*
X756400Y1815000D2*
X803600D1*
X1385000Y2563600D2*
Y2516400D1*
X1361400Y2540000D2*
X1408600D1*
X3040000Y1768600D2*
Y1721400D1*
X3016400Y1745000D2*
X3063600D1*
X3305000Y708600D2*
Y661400D1*
X3281400Y685000D2*
X3328600D1*
X3345000Y1133600D2*
Y1086400D1*
X3321400Y1110000D2*
X3368600D1*
X1700000Y2213600D2*
Y2166400D1*
X1676400Y2190000D2*
X1723600D1*
X580000Y2233600D2*
Y2186400D1*
X556400Y2210000D2*
X603600D1*
X335000Y463600D2*
Y416400D1*
X311400Y440000D2*
X358600D1*
X1922500Y2811100D2*
Y2763900D1*
X1898900Y2787500D2*
X1946100D1*
X2930000Y2653600D2*
Y2606400D1*
X2906400Y2630000D2*
X2953600D1*
X3235000Y2683600D2*
Y2636400D1*
X3211400Y2660000D2*
X3258600D1*
X2895000Y2463600D2*
Y2416400D1*
X2871400Y2440000D2*
X2918600D1*
X2747500Y2331100D2*
Y2283900D1*
X2723900Y2307500D2*
X2771100D1*
X195000Y733600D2*
Y686400D1*
X171400Y710000D2*
X218600D1*
X395000Y2033600D2*
Y1986400D1*
X371400Y2010000D2*
X418600D1*
X605000Y2008600D2*
Y1961400D1*
X581400Y1985000D2*
X628600D1*
X985000Y1978600D2*
Y1931400D1*
X961400Y1955000D2*
X1008600D1*
X1265000Y2193600D2*
Y2146400D1*
X1241400Y2170000D2*
X1288600D1*
X1930000Y2598600D2*
Y2551400D1*
X1906400Y2575000D2*
X1953600D1*
X1990000Y1893600D2*
Y1846400D1*
X1966400Y1870000D2*
X2013600D1*
X2270000Y1903600D2*
Y1856400D1*
X2246400Y1880000D2*
X2293600D1*
X1975000Y1523600D2*
Y1476400D1*
X1951400Y1500000D2*
X1998600D1*
X2555000Y1253600D2*
Y1206400D1*
X2531400Y1230000D2*
X2578600D1*
X2865000Y938600D2*
Y891400D1*
X2841400Y915000D2*
X2888600D1*
X3210000Y1943600D2*
Y1896400D1*
X3186400Y1920000D2*
X3233600D1*
X982211Y2088600D2*
Y2041400D1*
X958611Y2065000D2*
X1005811D1*
X1225000Y2088600D2*
Y2041400D1*
X1201400Y2065000D2*
X1248600D1*
X770001Y2023600D2*
Y1976400D1*
X746401Y2000000D2*
X793601D1*
X1060000Y2023600D2*
Y1976400D1*
X1036400Y2000000D2*
X1083600D1*
X1720000Y2023600D2*
Y1976400D1*
X1696400Y2000000D2*
X1743600D1*
X2490000Y2023600D2*
Y1976400D1*
X2466400Y2000000D2*
X2513600D1*
X1830000Y1983600D2*
Y1936400D1*
X1806400Y1960000D2*
X1853600D1*
X2490000Y1558600D2*
Y1511400D1*
X2466400Y1535000D2*
X2513600D1*
X1825000Y2538600D2*
Y2491400D1*
X1801400Y2515000D2*
X1848600D1*
X1945000Y2538600D2*
Y2491400D1*
X1921400Y2515000D2*
X1968600D1*
X2455000Y1778600D2*
Y1731400D1*
X2431400Y1755000D2*
X2478600D1*
X2455000Y1658600D2*
Y1611400D1*
X2431400Y1635000D2*
X2478600D1*
X1695000Y2438128D2*
Y2390928D1*
X1671400Y2414528D2*
X1718600D1*
X3414301Y747600D2*
Y724000D1*
X3437901D1*
X335801Y2802000D2*
Y2778400D1*
X359401D1*
X1998408Y2820608D2*
X2022008Y2797008D1*
X2045608Y2820608D1*
X7381400Y885000D2*
X7428600D1*
X7405000D2*
Y861400D1*
X5811400Y2883600D2*
X5858600Y2836400D1*
Y2883600D2*
X5811400Y2836400D1*
X5909825Y2883600D2*
X5957025Y2836400D1*
Y2883600D2*
X5909825Y2836400D1*
X3861400Y2053600D2*
X3885000Y2030000D1*
X3908600Y2053600D1*
X3885000Y2030000D2*
Y2006400D1*
X3861400Y1953600D2*
X3885000Y1930000D1*
X3908600Y1953600D1*
X3885000Y1930000D2*
Y1906400D1*
X3861400Y1853600D2*
X3885000Y1830000D1*
X3908600Y1853600D1*
X3885000Y1830000D2*
Y1806400D1*
X3961400Y1853600D2*
X3985000Y1830000D1*
X4008600Y1853600D1*
X3985000Y1830000D2*
Y1806400D1*
X3961400Y1953600D2*
X3985000Y1930000D1*
X4008600Y1953600D1*
X3985000Y1930000D2*
Y1906400D1*
X3961400Y2053600D2*
X3985000Y2030000D1*
X4008600Y2053600D1*
X3985000Y2030000D2*
Y2006400D1*
X7381400Y1035000D2*
X7428600D1*
X7405000D2*
Y1011400D1*
X7381400Y735000D2*
X7428600D1*
X7405000D2*
Y711400D1*
X5123447Y392183D2*
X5147047Y368583D1*
X5170647Y392183D1*
X5147047Y368583D2*
Y344983D1*
X5379353Y392183D2*
X5402953Y368583D1*
X5426553Y392183D1*
X5402953Y368583D2*
Y344983D1*
X5379353Y215017D2*
X5402953Y191417D1*
X5426553Y215017D1*
X5402953Y191417D2*
Y167817D1*
X5123447Y215017D2*
X5147047Y191417D1*
X5170647Y215017D1*
X5147047Y191417D2*
Y167817D1*
X4433447Y392183D2*
X4457047Y368583D1*
X4480647Y392183D1*
X4457047Y368583D2*
Y344983D1*
X4689353Y392183D2*
X4712953Y368583D1*
X4736553Y392183D1*
X4712953Y368583D2*
Y344983D1*
X4689353Y215017D2*
X4712953Y191417D1*
X4736553Y215017D1*
X4712953Y191417D2*
Y167817D1*
X4433447Y215017D2*
X4457047Y191417D1*
X4480647Y215017D1*
X4457047Y191417D2*
Y167817D1*
X5818445Y397180D2*
X5842045Y373580D1*
X5865645Y397180D1*
X5842045Y373580D2*
Y349980D1*
X6074351Y397185D2*
X6097951Y373585D1*
X6121551Y397185D1*
X6097951Y373585D2*
Y349985D1*
X6074355Y220020D2*
X6097955Y196420D1*
X6121555Y220020D1*
X6097955Y196420D2*
Y172820D1*
X5818449Y220015D2*
X5842049Y196415D1*
X5865649Y220015D1*
X5842049Y196415D2*
Y172815D1*
X6508444Y392178D2*
X6532044Y368578D1*
X6555644Y392178D1*
X6532044Y368578D2*
Y344978D1*
X6764350Y392187D2*
X6787950Y368587D1*
X6811550Y392187D1*
X6787950Y368587D2*
Y344987D1*
X6764356Y215022D2*
X6787956Y191422D1*
X6811556Y215022D1*
X6787956Y191422D2*
Y167822D1*
X6508450Y215013D2*
X6532050Y191413D1*
X6555650Y215013D1*
X6532050Y191413D2*
Y167813D1*
X6175000Y1828600D2*
Y1781400D1*
X6151400Y1805000D2*
X6198600D1*
X6175000Y1618600D2*
Y1571400D1*
X6151400Y1595000D2*
X6198600D1*
X4520000Y2338600D2*
Y2291400D1*
X4496400Y2315000D2*
X4543600D1*
X5839055Y2279072D2*
Y2231872D1*
X5815455Y2255472D2*
X5862655D1*
X6995000Y1148600D2*
Y1101400D1*
X6971400Y1125000D2*
X7018600D1*
X6825000Y1318600D2*
Y1271400D1*
X6801400Y1295000D2*
X6848600D1*
X5445000Y1163600D2*
Y1116400D1*
X5421400Y1140000D2*
X5468600D1*
X5560000Y1163600D2*
Y1116400D1*
X5536400Y1140000D2*
X5583600D1*
X4095000Y1428600D2*
Y1381400D1*
X4071400Y1405000D2*
X4118600D1*
X4095000Y1893600D2*
Y1846400D1*
X4071400Y1870000D2*
X4118600D1*
X6275000Y1518600D2*
Y1471400D1*
X6251400Y1495000D2*
X6298600D1*
X6435000Y2208600D2*
Y2161400D1*
X6411400Y2185000D2*
X6458600D1*
X5445000Y1508600D2*
Y1461400D1*
X5421400Y1485000D2*
X5468600D1*
X5225000Y2058600D2*
Y2011400D1*
X5201400Y2035000D2*
X5248600D1*
X5040000Y723600D2*
Y676400D1*
X5016400Y700000D2*
X5063600D1*
X4645000Y1503600D2*
Y1456400D1*
X4621400Y1480000D2*
X4668600D1*
X5450000Y2708600D2*
Y2661400D1*
X5426400Y2685000D2*
X5473600D1*
X4600000Y998600D2*
Y951400D1*
X4576400Y975000D2*
X4623600D1*
X4955000Y568600D2*
Y521400D1*
X4931400Y545000D2*
X4978600D1*
X4850000Y1373600D2*
Y1326400D1*
X4826400Y1350000D2*
X4873600D1*
X4915000Y1488600D2*
Y1441400D1*
X4891400Y1465000D2*
X4938600D1*
X4670000Y1433600D2*
Y1386400D1*
X4646400Y1410000D2*
X4693600D1*
X5130000Y1838600D2*
Y1791400D1*
X5106400Y1815000D2*
X5153600D1*
X5410000Y1213600D2*
Y1166400D1*
X5386400Y1190000D2*
X5433600D1*
X5270000Y1213600D2*
Y1166400D1*
X5246400Y1190000D2*
X5293600D1*
X5380000Y1123600D2*
Y1076400D1*
X5356400Y1100000D2*
X5403600D1*
X5525000Y1123600D2*
Y1076400D1*
X5501400Y1100000D2*
X5548600D1*
X5230000Y1271252D2*
Y1224052D1*
X5206400Y1247652D2*
X5253600D1*
X5369094Y1253600D2*
Y1206400D1*
X5345494Y1230000D2*
X5392694D1*
X4495000Y1738600D2*
Y1691400D1*
X4471400Y1715000D2*
X4518600D1*
X4495000Y1648600D2*
Y1601400D1*
X4471400Y1625000D2*
X4518600D1*
X4135000Y1693600D2*
Y1646400D1*
X4111400Y1670000D2*
X4158600D1*
X4135000Y1213600D2*
Y1166400D1*
X4111400Y1190000D2*
X4158600D1*
X4040000Y1253600D2*
Y1206400D1*
X4016400Y1230000D2*
X4063600D1*
X5605000Y1258600D2*
Y1211400D1*
X5581400Y1235000D2*
X5628600D1*
X5800000Y1258600D2*
Y1211400D1*
X5776400Y1235000D2*
X5823600D1*
X4530000Y1838600D2*
Y1791400D1*
X4506400Y1815000D2*
X4553600D1*
X5135000Y2563600D2*
Y2516400D1*
X5111400Y2540000D2*
X5158600D1*
X6790000Y1768600D2*
Y1721400D1*
X6766400Y1745000D2*
X6813600D1*
X7055000Y708600D2*
Y661400D1*
X7031400Y685000D2*
X7078600D1*
X7095000Y1133600D2*
Y1086400D1*
X7071400Y1110000D2*
X7118600D1*
X5450000Y2213600D2*
Y2166400D1*
X5426400Y2190000D2*
X5473600D1*
X4330000Y2233600D2*
Y2186400D1*
X4306400Y2210000D2*
X4353600D1*
X4085000Y463600D2*
Y416400D1*
X4061400Y440000D2*
X4108600D1*
X5672500Y2811100D2*
Y2763900D1*
X5648900Y2787500D2*
X5696100D1*
X6680000Y2653600D2*
Y2606400D1*
X6656400Y2630000D2*
X6703600D1*
X6985000Y2683600D2*
Y2636400D1*
X6961400Y2660000D2*
X7008600D1*
X6645000Y2463600D2*
Y2416400D1*
X6621400Y2440000D2*
X6668600D1*
X6497500Y2331100D2*
Y2283900D1*
X6473900Y2307500D2*
X6521100D1*
X3945000Y733600D2*
Y686400D1*
X3921400Y710000D2*
X3968600D1*
X4145000Y2033600D2*
Y1986400D1*
X4121400Y2010000D2*
X4168600D1*
X4355000Y2008600D2*
Y1961400D1*
X4331400Y1985000D2*
X4378600D1*
X4735000Y1978600D2*
Y1931400D1*
X4711400Y1955000D2*
X4758600D1*
X5015000Y2193600D2*
Y2146400D1*
X4991400Y2170000D2*
X5038600D1*
X5680000Y2598600D2*
Y2551400D1*
X5656400Y2575000D2*
X5703600D1*
X5740000Y1893600D2*
Y1846400D1*
X5716400Y1870000D2*
X5763600D1*
X6020000Y1903600D2*
Y1856400D1*
X5996400Y1880000D2*
X6043600D1*
X5725000Y1523600D2*
Y1476400D1*
X5701400Y1500000D2*
X5748600D1*
X6305000Y1253600D2*
Y1206400D1*
X6281400Y1230000D2*
X6328600D1*
X6615000Y938600D2*
Y891400D1*
X6591400Y915000D2*
X6638600D1*
X6960000Y1943600D2*
Y1896400D1*
X6936400Y1920000D2*
X6983600D1*
X4732211Y2088600D2*
Y2041400D1*
X4708611Y2065000D2*
X4755811D1*
X4975000Y2088600D2*
Y2041400D1*
X4951400Y2065000D2*
X4998600D1*
X4520001Y2023600D2*
Y1976400D1*
X4496401Y2000000D2*
X4543601D1*
X4810000Y2023600D2*
Y1976400D1*
X4786400Y2000000D2*
X4833600D1*
X5470000Y2023600D2*
Y1976400D1*
X5446400Y2000000D2*
X5493600D1*
X6240000Y2023600D2*
Y1976400D1*
X6216400Y2000000D2*
X6263600D1*
X5580000Y1983600D2*
Y1936400D1*
X5556400Y1960000D2*
X5603600D1*
X6240000Y1558600D2*
Y1511400D1*
X6216400Y1535000D2*
X6263600D1*
X5575000Y2538600D2*
Y2491400D1*
X5551400Y2515000D2*
X5598600D1*
X5695000Y2538600D2*
Y2491400D1*
X5671400Y2515000D2*
X5718600D1*
X6205000Y1778600D2*
Y1731400D1*
X6181400Y1755000D2*
X6228600D1*
X6205000Y1658600D2*
Y1611400D1*
X6181400Y1635000D2*
X6228600D1*
X5445000Y2438128D2*
Y2390928D1*
X5421400Y2414528D2*
X5468600D1*
X7164301Y747600D2*
Y724000D1*
X7187901D1*
X4085801Y2802000D2*
Y2778400D1*
X4109401D1*
X5748408Y2820608D2*
X5772008Y2797008D1*
X5795608Y2820608D1*
X3631400Y3885000D2*
X3678600D1*
X3655000D2*
Y3861400D1*
X2061400Y5883600D2*
X2108600Y5836400D1*
Y5883600D2*
X2061400Y5836400D1*
X2159825Y5883600D2*
X2207025Y5836400D1*
Y5883600D2*
X2159825Y5836400D1*
X111400Y5053600D2*
X135000Y5030000D1*
X158600Y5053600D1*
X135000Y5030000D2*
Y5006400D1*
X111400Y4953600D2*
X135000Y4930000D1*
X158600Y4953600D1*
X135000Y4930000D2*
Y4906400D1*
X111400Y4853600D2*
X135000Y4830000D1*
X158600Y4853600D1*
X135000Y4830000D2*
Y4806400D1*
X211400Y4853600D2*
X235000Y4830000D1*
X258600Y4853600D1*
X235000Y4830000D2*
Y4806400D1*
X211400Y4953600D2*
X235000Y4930000D1*
X258600Y4953600D1*
X235000Y4930000D2*
Y4906400D1*
X211400Y5053600D2*
X235000Y5030000D1*
X258600Y5053600D1*
X235000Y5030000D2*
Y5006400D1*
X3631400Y4035000D2*
X3678600D1*
X3655000D2*
Y4011400D1*
X3631400Y3735000D2*
X3678600D1*
X3655000D2*
Y3711400D1*
X1373447Y3392183D2*
X1397047Y3368583D1*
X1420647Y3392183D1*
X1397047Y3368583D2*
Y3344983D1*
X1629353Y3392183D2*
X1652953Y3368583D1*
X1676553Y3392183D1*
X1652953Y3368583D2*
Y3344983D1*
X1629353Y3215017D2*
X1652953Y3191417D1*
X1676553Y3215017D1*
X1652953Y3191417D2*
Y3167817D1*
X1373447Y3215017D2*
X1397047Y3191417D1*
X1420647Y3215017D1*
X1397047Y3191417D2*
Y3167817D1*
X683447Y3392183D2*
X707047Y3368583D1*
X730647Y3392183D1*
X707047Y3368583D2*
Y3344983D1*
X939353Y3392183D2*
X962953Y3368583D1*
X986553Y3392183D1*
X962953Y3368583D2*
Y3344983D1*
X939353Y3215017D2*
X962953Y3191417D1*
X986553Y3215017D1*
X962953Y3191417D2*
Y3167817D1*
X683447Y3215017D2*
X707047Y3191417D1*
X730647Y3215017D1*
X707047Y3191417D2*
Y3167817D1*
X2068445Y3397180D2*
X2092045Y3373580D1*
X2115645Y3397180D1*
X2092045Y3373580D2*
Y3349980D1*
X2324351Y3397185D2*
X2347951Y3373585D1*
X2371551Y3397185D1*
X2347951Y3373585D2*
Y3349985D1*
X2324355Y3220020D2*
X2347955Y3196420D1*
X2371555Y3220020D1*
X2347955Y3196420D2*
Y3172820D1*
X2068449Y3220015D2*
X2092049Y3196415D1*
X2115649Y3220015D1*
X2092049Y3196415D2*
Y3172815D1*
X2758444Y3392178D2*
X2782044Y3368578D1*
X2805644Y3392178D1*
X2782044Y3368578D2*
Y3344978D1*
X3014350Y3392187D2*
X3037950Y3368587D1*
X3061550Y3392187D1*
X3037950Y3368587D2*
Y3344987D1*
X3014356Y3215022D2*
X3037956Y3191422D1*
X3061556Y3215022D1*
X3037956Y3191422D2*
Y3167822D1*
X2758450Y3215013D2*
X2782050Y3191413D1*
X2805650Y3215013D1*
X2782050Y3191413D2*
Y3167813D1*
X2425000Y4828600D2*
Y4781400D1*
X2401400Y4805000D2*
X2448600D1*
X2425000Y4618600D2*
Y4571400D1*
X2401400Y4595000D2*
X2448600D1*
X770000Y5338600D2*
Y5291400D1*
X746400Y5315000D2*
X793600D1*
X2089055Y5279072D2*
Y5231872D1*
X2065455Y5255472D2*
X2112655D1*
X3245000Y4148600D2*
Y4101400D1*
X3221400Y4125000D2*
X3268600D1*
X3075000Y4318600D2*
Y4271400D1*
X3051400Y4295000D2*
X3098600D1*
X1695000Y4163600D2*
Y4116400D1*
X1671400Y4140000D2*
X1718600D1*
X1810000Y4163600D2*
Y4116400D1*
X1786400Y4140000D2*
X1833600D1*
X345000Y4428600D2*
Y4381400D1*
X321400Y4405000D2*
X368600D1*
X345000Y4893600D2*
Y4846400D1*
X321400Y4870000D2*
X368600D1*
X2525000Y4518600D2*
Y4471400D1*
X2501400Y4495000D2*
X2548600D1*
X2685000Y5208600D2*
Y5161400D1*
X2661400Y5185000D2*
X2708600D1*
X1695000Y4508600D2*
Y4461400D1*
X1671400Y4485000D2*
X1718600D1*
X1475000Y5058600D2*
Y5011400D1*
X1451400Y5035000D2*
X1498600D1*
X1290000Y3723600D2*
Y3676400D1*
X1266400Y3700000D2*
X1313600D1*
X895000Y4503600D2*
Y4456400D1*
X871400Y4480000D2*
X918600D1*
X1700000Y5708600D2*
Y5661400D1*
X1676400Y5685000D2*
X1723600D1*
X850000Y3998600D2*
Y3951400D1*
X826400Y3975000D2*
X873600D1*
X1205000Y3568600D2*
Y3521400D1*
X1181400Y3545000D2*
X1228600D1*
X1100000Y4373600D2*
Y4326400D1*
X1076400Y4350000D2*
X1123600D1*
X1165000Y4488600D2*
Y4441400D1*
X1141400Y4465000D2*
X1188600D1*
X920000Y4433600D2*
Y4386400D1*
X896400Y4410000D2*
X943600D1*
X1380000Y4838600D2*
Y4791400D1*
X1356400Y4815000D2*
X1403600D1*
X1660000Y4213600D2*
Y4166400D1*
X1636400Y4190000D2*
X1683600D1*
X1520000Y4213600D2*
Y4166400D1*
X1496400Y4190000D2*
X1543600D1*
X1630000Y4123600D2*
Y4076400D1*
X1606400Y4100000D2*
X1653600D1*
X1775000Y4123600D2*
Y4076400D1*
X1751400Y4100000D2*
X1798600D1*
X1480000Y4271252D2*
Y4224052D1*
X1456400Y4247652D2*
X1503600D1*
X1619094Y4253600D2*
Y4206400D1*
X1595494Y4230000D2*
X1642694D1*
X745000Y4738600D2*
Y4691400D1*
X721400Y4715000D2*
X768600D1*
X745000Y4648600D2*
Y4601400D1*
X721400Y4625000D2*
X768600D1*
X385000Y4693600D2*
Y4646400D1*
X361400Y4670000D2*
X408600D1*
X385000Y4213600D2*
Y4166400D1*
X361400Y4190000D2*
X408600D1*
X290000Y4253600D2*
Y4206400D1*
X266400Y4230000D2*
X313600D1*
X1855000Y4258600D2*
Y4211400D1*
X1831400Y4235000D2*
X1878600D1*
X2050000Y4258600D2*
Y4211400D1*
X2026400Y4235000D2*
X2073600D1*
X780000Y4838600D2*
Y4791400D1*
X756400Y4815000D2*
X803600D1*
X1385000Y5563600D2*
Y5516400D1*
X1361400Y5540000D2*
X1408600D1*
X3040000Y4768600D2*
Y4721400D1*
X3016400Y4745000D2*
X3063600D1*
X3305000Y3708600D2*
Y3661400D1*
X3281400Y3685000D2*
X3328600D1*
X3345000Y4133600D2*
Y4086400D1*
X3321400Y4110000D2*
X3368600D1*
X1700000Y5213600D2*
Y5166400D1*
X1676400Y5190000D2*
X1723600D1*
X580000Y5233600D2*
Y5186400D1*
X556400Y5210000D2*
X603600D1*
X335000Y3463600D2*
Y3416400D1*
X311400Y3440000D2*
X358600D1*
X1922500Y5811100D2*
Y5763900D1*
X1898900Y5787500D2*
X1946100D1*
X2930000Y5653600D2*
Y5606400D1*
X2906400Y5630000D2*
X2953600D1*
X3235000Y5683600D2*
Y5636400D1*
X3211400Y5660000D2*
X3258600D1*
X2895000Y5463600D2*
Y5416400D1*
X2871400Y5440000D2*
X2918600D1*
X2747500Y5331100D2*
Y5283900D1*
X2723900Y5307500D2*
X2771100D1*
X195000Y3733600D2*
Y3686400D1*
X171400Y3710000D2*
X218600D1*
X395000Y5033600D2*
Y4986400D1*
X371400Y5010000D2*
X418600D1*
X605000Y5008600D2*
Y4961400D1*
X581400Y4985000D2*
X628600D1*
X985000Y4978600D2*
Y4931400D1*
X961400Y4955000D2*
X1008600D1*
X1265000Y5193600D2*
Y5146400D1*
X1241400Y5170000D2*
X1288600D1*
X1930000Y5598600D2*
Y5551400D1*
X1906400Y5575000D2*
X1953600D1*
X1990000Y4893600D2*
Y4846400D1*
X1966400Y4870000D2*
X2013600D1*
X2270000Y4903600D2*
Y4856400D1*
X2246400Y4880000D2*
X2293600D1*
X1975000Y4523600D2*
Y4476400D1*
X1951400Y4500000D2*
X1998600D1*
X2555000Y4253600D2*
Y4206400D1*
X2531400Y4230000D2*
X2578600D1*
X2865000Y3938600D2*
Y3891400D1*
X2841400Y3915000D2*
X2888600D1*
X3210000Y4943600D2*
Y4896400D1*
X3186400Y4920000D2*
X3233600D1*
X982211Y5088600D2*
Y5041400D1*
X958611Y5065000D2*
X1005811D1*
X1225000Y5088600D2*
Y5041400D1*
X1201400Y5065000D2*
X1248600D1*
X770001Y5023600D2*
Y4976400D1*
X746401Y5000000D2*
X793601D1*
X1060000Y5023600D2*
Y4976400D1*
X1036400Y5000000D2*
X1083600D1*
X1720000Y5023600D2*
Y4976400D1*
X1696400Y5000000D2*
X1743600D1*
X2490000Y5023600D2*
Y4976400D1*
X2466400Y5000000D2*
X2513600D1*
X1830000Y4983600D2*
Y4936400D1*
X1806400Y4960000D2*
X1853600D1*
X2490000Y4558600D2*
Y4511400D1*
X2466400Y4535000D2*
X2513600D1*
X1825000Y5538600D2*
Y5491400D1*
X1801400Y5515000D2*
X1848600D1*
X1945000Y5538600D2*
Y5491400D1*
X1921400Y5515000D2*
X1968600D1*
X2455000Y4778600D2*
Y4731400D1*
X2431400Y4755000D2*
X2478600D1*
X2455000Y4658600D2*
Y4611400D1*
X2431400Y4635000D2*
X2478600D1*
X1695000Y5438128D2*
Y5390928D1*
X1671400Y5414528D2*
X1718600D1*
X3414301Y3747600D2*
Y3724000D1*
X3437901D1*
X335801Y5802000D2*
Y5778400D1*
X359401D1*
X1998408Y5820608D2*
X2022008Y5797008D1*
X2045608Y5820608D1*
X7381400Y3885000D2*
X7428600D1*
X7405000D2*
Y3861400D1*
X5811400Y5883600D2*
X5858600Y5836400D1*
Y5883600D2*
X5811400Y5836400D1*
X5909825Y5883600D2*
X5957025Y5836400D1*
Y5883600D2*
X5909825Y5836400D1*
X3861400Y5053600D2*
X3885000Y5030000D1*
X3908600Y5053600D1*
X3885000Y5030000D2*
Y5006400D1*
X3861400Y4953600D2*
X3885000Y4930000D1*
X3908600Y4953600D1*
X3885000Y4930000D2*
Y4906400D1*
X3861400Y4853600D2*
X3885000Y4830000D1*
X3908600Y4853600D1*
X3885000Y4830000D2*
Y4806400D1*
X3961400Y4853600D2*
X3985000Y4830000D1*
X4008600Y4853600D1*
X3985000Y4830000D2*
Y4806400D1*
X3961400Y4953600D2*
X3985000Y4930000D1*
X4008600Y4953600D1*
X3985000Y4930000D2*
Y4906400D1*
X3961400Y5053600D2*
X3985000Y5030000D1*
X4008600Y5053600D1*
X3985000Y5030000D2*
Y5006400D1*
X7381400Y4035000D2*
X7428600D1*
X7405000D2*
Y4011400D1*
X7381400Y3735000D2*
X7428600D1*
X7405000D2*
Y3711400D1*
X5123447Y3392183D2*
X5147047Y3368583D1*
X5170647Y3392183D1*
X5147047Y3368583D2*
Y3344983D1*
X5379353Y3392183D2*
X5402953Y3368583D1*
X5426553Y3392183D1*
X5402953Y3368583D2*
Y3344983D1*
X5379353Y3215017D2*
X5402953Y3191417D1*
X5426553Y3215017D1*
X5402953Y3191417D2*
Y3167817D1*
X5123447Y3215017D2*
X5147047Y3191417D1*
X5170647Y3215017D1*
X5147047Y3191417D2*
Y3167817D1*
X4433447Y3392183D2*
X4457047Y3368583D1*
X4480647Y3392183D1*
X4457047Y3368583D2*
Y3344983D1*
X4689353Y3392183D2*
X4712953Y3368583D1*
X4736553Y3392183D1*
X4712953Y3368583D2*
Y3344983D1*
X4689353Y3215017D2*
X4712953Y3191417D1*
X4736553Y3215017D1*
X4712953Y3191417D2*
Y3167817D1*
X4433447Y3215017D2*
X4457047Y3191417D1*
X4480647Y3215017D1*
X4457047Y3191417D2*
Y3167817D1*
X5818445Y3397180D2*
X5842045Y3373580D1*
X5865645Y3397180D1*
X5842045Y3373580D2*
Y3349980D1*
X6074351Y3397185D2*
X6097951Y3373585D1*
X6121551Y3397185D1*
X6097951Y3373585D2*
Y3349985D1*
X6074355Y3220020D2*
X6097955Y3196420D1*
X6121555Y3220020D1*
X6097955Y3196420D2*
Y3172820D1*
X5818449Y3220015D2*
X5842049Y3196415D1*
X5865649Y3220015D1*
X5842049Y3196415D2*
Y3172815D1*
X6508444Y3392178D2*
X6532044Y3368578D1*
X6555644Y3392178D1*
X6532044Y3368578D2*
Y3344978D1*
X6764350Y3392187D2*
X6787950Y3368587D1*
X6811550Y3392187D1*
X6787950Y3368587D2*
Y3344987D1*
X6764356Y3215022D2*
X6787956Y3191422D1*
X6811556Y3215022D1*
X6787956Y3191422D2*
Y3167822D1*
X6508450Y3215013D2*
X6532050Y3191413D1*
X6555650Y3215013D1*
X6532050Y3191413D2*
Y3167813D1*
X6175000Y4828600D2*
Y4781400D1*
X6151400Y4805000D2*
X6198600D1*
X6175000Y4618600D2*
Y4571400D1*
X6151400Y4595000D2*
X6198600D1*
X4520000Y5338600D2*
Y5291400D1*
X4496400Y5315000D2*
X4543600D1*
X5839055Y5279072D2*
Y5231872D1*
X5815455Y5255472D2*
X5862655D1*
X6995000Y4148600D2*
Y4101400D1*
X6971400Y4125000D2*
X7018600D1*
X6825000Y4318600D2*
Y4271400D1*
X6801400Y4295000D2*
X6848600D1*
X5445000Y4163600D2*
Y4116400D1*
X5421400Y4140000D2*
X5468600D1*
X5560000Y4163600D2*
Y4116400D1*
X5536400Y4140000D2*
X5583600D1*
X4095000Y4428600D2*
Y4381400D1*
X4071400Y4405000D2*
X4118600D1*
X4095000Y4893600D2*
Y4846400D1*
X4071400Y4870000D2*
X4118600D1*
X6275000Y4518600D2*
Y4471400D1*
X6251400Y4495000D2*
X6298600D1*
X6435000Y5208600D2*
Y5161400D1*
X6411400Y5185000D2*
X6458600D1*
X5445000Y4508600D2*
Y4461400D1*
X5421400Y4485000D2*
X5468600D1*
X5225000Y5058600D2*
Y5011400D1*
X5201400Y5035000D2*
X5248600D1*
X5040000Y3723600D2*
Y3676400D1*
X5016400Y3700000D2*
X5063600D1*
X4645000Y4503600D2*
Y4456400D1*
X4621400Y4480000D2*
X4668600D1*
X5450000Y5708600D2*
Y5661400D1*
X5426400Y5685000D2*
X5473600D1*
X4600000Y3998600D2*
Y3951400D1*
X4576400Y3975000D2*
X4623600D1*
X4955000Y3568600D2*
Y3521400D1*
X4931400Y3545000D2*
X4978600D1*
X4850000Y4373600D2*
Y4326400D1*
X4826400Y4350000D2*
X4873600D1*
X4915000Y4488600D2*
Y4441400D1*
X4891400Y4465000D2*
X4938600D1*
X4670000Y4433600D2*
Y4386400D1*
X4646400Y4410000D2*
X4693600D1*
X5130000Y4838600D2*
Y4791400D1*
X5106400Y4815000D2*
X5153600D1*
X5410000Y4213600D2*
Y4166400D1*
X5386400Y4190000D2*
X5433600D1*
X5270000Y4213600D2*
Y4166400D1*
X5246400Y4190000D2*
X5293600D1*
X5380000Y4123600D2*
Y4076400D1*
X5356400Y4100000D2*
X5403600D1*
X5525000Y4123600D2*
Y4076400D1*
X5501400Y4100000D2*
X5548600D1*
X5230000Y4271252D2*
Y4224052D1*
X5206400Y4247652D2*
X5253600D1*
X5369094Y4253600D2*
Y4206400D1*
X5345494Y4230000D2*
X5392694D1*
X4495000Y4738600D2*
Y4691400D1*
X4471400Y4715000D2*
X4518600D1*
X4495000Y4648600D2*
Y4601400D1*
X4471400Y4625000D2*
X4518600D1*
X4135000Y4693600D2*
Y4646400D1*
X4111400Y4670000D2*
X4158600D1*
X4135000Y4213600D2*
Y4166400D1*
X4111400Y4190000D2*
X4158600D1*
X4040000Y4253600D2*
Y4206400D1*
X4016400Y4230000D2*
X4063600D1*
X5605000Y4258600D2*
Y4211400D1*
X5581400Y4235000D2*
X5628600D1*
X5800000Y4258600D2*
Y4211400D1*
X5776400Y4235000D2*
X5823600D1*
X4530000Y4838600D2*
Y4791400D1*
X4506400Y4815000D2*
X4553600D1*
X5135000Y5563600D2*
Y5516400D1*
X5111400Y5540000D2*
X5158600D1*
X6790000Y4768600D2*
Y4721400D1*
X6766400Y4745000D2*
X6813600D1*
X7055000Y3708600D2*
Y3661400D1*
X7031400Y3685000D2*
X7078600D1*
X7095000Y4133600D2*
Y4086400D1*
X7071400Y4110000D2*
X7118600D1*
X5450000Y5213600D2*
Y5166400D1*
X5426400Y5190000D2*
X5473600D1*
X4330000Y5233600D2*
Y5186400D1*
X4306400Y5210000D2*
X4353600D1*
X4085000Y3463600D2*
Y3416400D1*
X4061400Y3440000D2*
X4108600D1*
X5672500Y5811100D2*
Y5763900D1*
X5648900Y5787500D2*
X5696100D1*
X6680000Y5653600D2*
Y5606400D1*
X6656400Y5630000D2*
X6703600D1*
X6985000Y5683600D2*
Y5636400D1*
X6961400Y5660000D2*
X7008600D1*
X6645000Y5463600D2*
Y5416400D1*
X6621400Y5440000D2*
X6668600D1*
X6497500Y5331100D2*
Y5283900D1*
X6473900Y5307500D2*
X6521100D1*
X3945000Y3733600D2*
Y3686400D1*
X3921400Y3710000D2*
X3968600D1*
X4145000Y5033600D2*
Y4986400D1*
X4121400Y5010000D2*
X4168600D1*
X4355000Y5008600D2*
Y4961400D1*
X4331400Y4985000D2*
X4378600D1*
X4735000Y4978600D2*
Y4931400D1*
X4711400Y4955000D2*
X4758600D1*
X5015000Y5193600D2*
Y5146400D1*
X4991400Y5170000D2*
X5038600D1*
X5680000Y5598600D2*
Y5551400D1*
X5656400Y5575000D2*
X5703600D1*
X5740000Y4893600D2*
Y4846400D1*
X5716400Y4870000D2*
X5763600D1*
X6020000Y4903600D2*
Y4856400D1*
X5996400Y4880000D2*
X6043600D1*
X5725000Y4523600D2*
Y4476400D1*
X5701400Y4500000D2*
X5748600D1*
X6305000Y4253600D2*
Y4206400D1*
X6281400Y4230000D2*
X6328600D1*
X6615000Y3938600D2*
Y3891400D1*
X6591400Y3915000D2*
X6638600D1*
X6960000Y4943600D2*
Y4896400D1*
X6936400Y4920000D2*
X6983600D1*
X4732211Y5088600D2*
Y5041400D1*
X4708611Y5065000D2*
X4755811D1*
X4975000Y5088600D2*
Y5041400D1*
X4951400Y5065000D2*
X4998600D1*
X4520001Y5023600D2*
Y4976400D1*
X4496401Y5000000D2*
X4543601D1*
X4810000Y5023600D2*
Y4976400D1*
X4786400Y5000000D2*
X4833600D1*
X5470000Y5023600D2*
Y4976400D1*
X5446400Y5000000D2*
X5493600D1*
X6240000Y5023600D2*
Y4976400D1*
X6216400Y5000000D2*
X6263600D1*
X5580000Y4983600D2*
Y4936400D1*
X5556400Y4960000D2*
X5603600D1*
X6240000Y4558600D2*
Y4511400D1*
X6216400Y4535000D2*
X6263600D1*
X5575000Y5538600D2*
Y5491400D1*
X5551400Y5515000D2*
X5598600D1*
X5695000Y5538600D2*
Y5491400D1*
X5671400Y5515000D2*
X5718600D1*
X6205000Y4778600D2*
Y4731400D1*
X6181400Y4755000D2*
X6228600D1*
X6205000Y4658600D2*
Y4611400D1*
X6181400Y4635000D2*
X6228600D1*
X5445000Y5438128D2*
Y5390928D1*
X5421400Y5414528D2*
X5468600D1*
X7164301Y3747600D2*
Y3724000D1*
X7187901D1*
X4085801Y5802000D2*
Y5778400D1*
X4109401D1*
X5748408Y5820608D2*
X5772008Y5797008D1*
X5795608Y5820608D1*
X3631400Y6885000D2*
X3678600D1*
X3655000D2*
Y6861400D1*
X2061400Y8883600D2*
X2108600Y8836400D1*
Y8883600D2*
X2061400Y8836400D1*
X2159825Y8883600D2*
X2207025Y8836400D1*
Y8883600D2*
X2159825Y8836400D1*
X111400Y8053600D2*
X135000Y8030000D1*
X158600Y8053600D1*
X135000Y8030000D2*
Y8006400D1*
X111400Y7953600D2*
X135000Y7930000D1*
X158600Y7953600D1*
X135000Y7930000D2*
Y7906400D1*
X111400Y7853600D2*
X135000Y7830000D1*
X158600Y7853600D1*
X135000Y7830000D2*
Y7806400D1*
X211400Y7853600D2*
X235000Y7830000D1*
X258600Y7853600D1*
X235000Y7830000D2*
Y7806400D1*
X211400Y7953600D2*
X235000Y7930000D1*
X258600Y7953600D1*
X235000Y7930000D2*
Y7906400D1*
X211400Y8053600D2*
X235000Y8030000D1*
X258600Y8053600D1*
X235000Y8030000D2*
Y8006400D1*
X3631400Y7035000D2*
X3678600D1*
X3655000D2*
Y7011400D1*
X3631400Y6735000D2*
X3678600D1*
X3655000D2*
Y6711400D1*
X1373447Y6392183D2*
X1397047Y6368583D1*
X1420647Y6392183D1*
X1397047Y6368583D2*
Y6344983D1*
X1629353Y6392183D2*
X1652953Y6368583D1*
X1676553Y6392183D1*
X1652953Y6368583D2*
Y6344983D1*
X1629353Y6215017D2*
X1652953Y6191417D1*
X1676553Y6215017D1*
X1652953Y6191417D2*
Y6167817D1*
X1373447Y6215017D2*
X1397047Y6191417D1*
X1420647Y6215017D1*
X1397047Y6191417D2*
Y6167817D1*
X683447Y6392183D2*
X707047Y6368583D1*
X730647Y6392183D1*
X707047Y6368583D2*
Y6344983D1*
X939353Y6392183D2*
X962953Y6368583D1*
X986553Y6392183D1*
X962953Y6368583D2*
Y6344983D1*
X939353Y6215017D2*
X962953Y6191417D1*
X986553Y6215017D1*
X962953Y6191417D2*
Y6167817D1*
X683447Y6215017D2*
X707047Y6191417D1*
X730647Y6215017D1*
X707047Y6191417D2*
Y6167817D1*
X2068445Y6397180D2*
X2092045Y6373580D1*
X2115645Y6397180D1*
X2092045Y6373580D2*
Y6349980D1*
X2324351Y6397185D2*
X2347951Y6373585D1*
X2371551Y6397185D1*
X2347951Y6373585D2*
Y6349985D1*
X2324355Y6220020D2*
X2347955Y6196420D1*
X2371555Y6220020D1*
X2347955Y6196420D2*
Y6172820D1*
X2068449Y6220015D2*
X2092049Y6196415D1*
X2115649Y6220015D1*
X2092049Y6196415D2*
Y6172815D1*
X2758444Y6392178D2*
X2782044Y6368578D1*
X2805644Y6392178D1*
X2782044Y6368578D2*
Y6344978D1*
X3014350Y6392187D2*
X3037950Y6368587D1*
X3061550Y6392187D1*
X3037950Y6368587D2*
Y6344987D1*
X3014356Y6215022D2*
X3037956Y6191422D1*
X3061556Y6215022D1*
X3037956Y6191422D2*
Y6167822D1*
X2758450Y6215013D2*
X2782050Y6191413D1*
X2805650Y6215013D1*
X2782050Y6191413D2*
Y6167813D1*
X2425000Y7828600D2*
Y7781400D1*
X2401400Y7805000D2*
X2448600D1*
X2425000Y7618600D2*
Y7571400D1*
X2401400Y7595000D2*
X2448600D1*
X770000Y8338600D2*
Y8291400D1*
X746400Y8315000D2*
X793600D1*
X2089055Y8279072D2*
Y8231872D1*
X2065455Y8255472D2*
X2112655D1*
X3245000Y7148600D2*
Y7101400D1*
X3221400Y7125000D2*
X3268600D1*
X3075000Y7318600D2*
Y7271400D1*
X3051400Y7295000D2*
X3098600D1*
X1695000Y7163600D2*
Y7116400D1*
X1671400Y7140000D2*
X1718600D1*
X1810000Y7163600D2*
Y7116400D1*
X1786400Y7140000D2*
X1833600D1*
X345000Y7428600D2*
Y7381400D1*
X321400Y7405000D2*
X368600D1*
X345000Y7893600D2*
Y7846400D1*
X321400Y7870000D2*
X368600D1*
X2525000Y7518600D2*
Y7471400D1*
X2501400Y7495000D2*
X2548600D1*
X2685000Y8208600D2*
Y8161400D1*
X2661400Y8185000D2*
X2708600D1*
X1695000Y7508600D2*
Y7461400D1*
X1671400Y7485000D2*
X1718600D1*
X1475000Y8058600D2*
Y8011400D1*
X1451400Y8035000D2*
X1498600D1*
X1290000Y6723600D2*
Y6676400D1*
X1266400Y6700000D2*
X1313600D1*
X895000Y7503600D2*
Y7456400D1*
X871400Y7480000D2*
X918600D1*
X1700000Y8708600D2*
Y8661400D1*
X1676400Y8685000D2*
X1723600D1*
X850000Y6998600D2*
Y6951400D1*
X826400Y6975000D2*
X873600D1*
X1205000Y6568600D2*
Y6521400D1*
X1181400Y6545000D2*
X1228600D1*
X1100000Y7373600D2*
Y7326400D1*
X1076400Y7350000D2*
X1123600D1*
X1165000Y7488600D2*
Y7441400D1*
X1141400Y7465000D2*
X1188600D1*
X920000Y7433600D2*
Y7386400D1*
X896400Y7410000D2*
X943600D1*
X1380000Y7838600D2*
Y7791400D1*
X1356400Y7815000D2*
X1403600D1*
X1660000Y7213600D2*
Y7166400D1*
X1636400Y7190000D2*
X1683600D1*
X1520000Y7213600D2*
Y7166400D1*
X1496400Y7190000D2*
X1543600D1*
X1630000Y7123600D2*
Y7076400D1*
X1606400Y7100000D2*
X1653600D1*
X1775000Y7123600D2*
Y7076400D1*
X1751400Y7100000D2*
X1798600D1*
X1480000Y7271252D2*
Y7224052D1*
X1456400Y7247652D2*
X1503600D1*
X1619094Y7253600D2*
Y7206400D1*
X1595494Y7230000D2*
X1642694D1*
X745000Y7738600D2*
Y7691400D1*
X721400Y7715000D2*
X768600D1*
X745000Y7648600D2*
Y7601400D1*
X721400Y7625000D2*
X768600D1*
X385000Y7693600D2*
Y7646400D1*
X361400Y7670000D2*
X408600D1*
X385000Y7213600D2*
Y7166400D1*
X361400Y7190000D2*
X408600D1*
X290000Y7253600D2*
Y7206400D1*
X266400Y7230000D2*
X313600D1*
X1855000Y7258600D2*
Y7211400D1*
X1831400Y7235000D2*
X1878600D1*
X2050000Y7258600D2*
Y7211400D1*
X2026400Y7235000D2*
X2073600D1*
X780000Y7838600D2*
Y7791400D1*
X756400Y7815000D2*
X803600D1*
X1385000Y8563600D2*
Y8516400D1*
X1361400Y8540000D2*
X1408600D1*
X3040000Y7768600D2*
Y7721400D1*
X3016400Y7745000D2*
X3063600D1*
X3305000Y6708600D2*
Y6661400D1*
X3281400Y6685000D2*
X3328600D1*
X3345000Y7133600D2*
Y7086400D1*
X3321400Y7110000D2*
X3368600D1*
X1700000Y8213600D2*
Y8166400D1*
X1676400Y8190000D2*
X1723600D1*
X580000Y8233600D2*
Y8186400D1*
X556400Y8210000D2*
X603600D1*
X335000Y6463600D2*
Y6416400D1*
X311400Y6440000D2*
X358600D1*
X1922500Y8811100D2*
Y8763900D1*
X1898900Y8787500D2*
X1946100D1*
X2930000Y8653600D2*
Y8606400D1*
X2906400Y8630000D2*
X2953600D1*
X3235000Y8683600D2*
Y8636400D1*
X3211400Y8660000D2*
X3258600D1*
X2895000Y8463600D2*
Y8416400D1*
X2871400Y8440000D2*
X2918600D1*
X2747500Y8331100D2*
Y8283900D1*
X2723900Y8307500D2*
X2771100D1*
X195000Y6733600D2*
Y6686400D1*
X171400Y6710000D2*
X218600D1*
X395000Y8033600D2*
Y7986400D1*
X371400Y8010000D2*
X418600D1*
X605000Y8008600D2*
Y7961400D1*
X581400Y7985000D2*
X628600D1*
X985000Y7978600D2*
Y7931400D1*
X961400Y7955000D2*
X1008600D1*
X1265000Y8193600D2*
Y8146400D1*
X1241400Y8170000D2*
X1288600D1*
X1930000Y8598600D2*
Y8551400D1*
X1906400Y8575000D2*
X1953600D1*
X1990000Y7893600D2*
Y7846400D1*
X1966400Y7870000D2*
X2013600D1*
X2270000Y7903600D2*
Y7856400D1*
X2246400Y7880000D2*
X2293600D1*
X1975000Y7523600D2*
Y7476400D1*
X1951400Y7500000D2*
X1998600D1*
X2555000Y7253600D2*
Y7206400D1*
X2531400Y7230000D2*
X2578600D1*
X2865000Y6938600D2*
Y6891400D1*
X2841400Y6915000D2*
X2888600D1*
X3210000Y7943600D2*
Y7896400D1*
X3186400Y7920000D2*
X3233600D1*
X982211Y8088600D2*
Y8041400D1*
X958611Y8065000D2*
X1005811D1*
X1225000Y8088600D2*
Y8041400D1*
X1201400Y8065000D2*
X1248600D1*
X770001Y8023600D2*
Y7976400D1*
X746401Y8000000D2*
X793601D1*
X1060000Y8023600D2*
Y7976400D1*
X1036400Y8000000D2*
X1083600D1*
X1720000Y8023600D2*
Y7976400D1*
X1696400Y8000000D2*
X1743600D1*
X2490000Y8023600D2*
Y7976400D1*
X2466400Y8000000D2*
X2513600D1*
X1830000Y7983600D2*
Y7936400D1*
X1806400Y7960000D2*
X1853600D1*
X2490000Y7558600D2*
Y7511400D1*
X2466400Y7535000D2*
X2513600D1*
X1825000Y8538600D2*
Y8491400D1*
X1801400Y8515000D2*
X1848600D1*
X1945000Y8538600D2*
Y8491400D1*
X1921400Y8515000D2*
X1968600D1*
X2455000Y7778600D2*
Y7731400D1*
X2431400Y7755000D2*
X2478600D1*
X2455000Y7658600D2*
Y7611400D1*
X2431400Y7635000D2*
X2478600D1*
X1695000Y8438128D2*
Y8390928D1*
X1671400Y8414528D2*
X1718600D1*
X3414301Y6747600D2*
Y6724000D1*
X3437901D1*
X335801Y8802000D2*
Y8778400D1*
X359401D1*
X1998408Y8820608D2*
X2022008Y8797008D1*
X2045608Y8820608D1*
X7381400Y6885000D2*
X7428600D1*
X7405000D2*
Y6861400D1*
X5811400Y8883600D2*
X5858600Y8836400D1*
Y8883600D2*
X5811400Y8836400D1*
X5909825Y8883600D2*
X5957025Y8836400D1*
Y8883600D2*
X5909825Y8836400D1*
X3861400Y8053600D2*
X3885000Y8030000D1*
X3908600Y8053600D1*
X3885000Y8030000D2*
Y8006400D1*
X3861400Y7953600D2*
X3885000Y7930000D1*
X3908600Y7953600D1*
X3885000Y7930000D2*
Y7906400D1*
X3861400Y7853600D2*
X3885000Y7830000D1*
X3908600Y7853600D1*
X3885000Y7830000D2*
Y7806400D1*
X3961400Y7853600D2*
X3985000Y7830000D1*
X4008600Y7853600D1*
X3985000Y7830000D2*
Y7806400D1*
X3961400Y7953600D2*
X3985000Y7930000D1*
X4008600Y7953600D1*
X3985000Y7930000D2*
Y7906400D1*
X3961400Y8053600D2*
X3985000Y8030000D1*
X4008600Y8053600D1*
X3985000Y8030000D2*
Y8006400D1*
X7381400Y7035000D2*
X7428600D1*
X7405000D2*
Y7011400D1*
X7381400Y6735000D2*
X7428600D1*
X7405000D2*
Y6711400D1*
X5123447Y6392183D2*
X5147047Y6368583D1*
X5170647Y6392183D1*
X5147047Y6368583D2*
Y6344983D1*
X5379353Y6392183D2*
X5402953Y6368583D1*
X5426553Y6392183D1*
X5402953Y6368583D2*
Y6344983D1*
X5379353Y6215017D2*
X5402953Y6191417D1*
X5426553Y6215017D1*
X5402953Y6191417D2*
Y6167817D1*
X5123447Y6215017D2*
X5147047Y6191417D1*
X5170647Y6215017D1*
X5147047Y6191417D2*
Y6167817D1*
X4433447Y6392183D2*
X4457047Y6368583D1*
X4480647Y6392183D1*
X4457047Y6368583D2*
Y6344983D1*
X4689353Y6392183D2*
X4712953Y6368583D1*
X4736553Y6392183D1*
X4712953Y6368583D2*
Y6344983D1*
X4689353Y6215017D2*
X4712953Y6191417D1*
X4736553Y6215017D1*
X4712953Y6191417D2*
Y6167817D1*
X4433447Y6215017D2*
X4457047Y6191417D1*
X4480647Y6215017D1*
X4457047Y6191417D2*
Y6167817D1*
X5818445Y6397180D2*
X5842045Y6373580D1*
X5865645Y6397180D1*
X5842045Y6373580D2*
Y6349980D1*
X6074351Y6397185D2*
X6097951Y6373585D1*
X6121551Y6397185D1*
X6097951Y6373585D2*
Y6349985D1*
X6074355Y6220020D2*
X6097955Y6196420D1*
X6121555Y6220020D1*
X6097955Y6196420D2*
Y6172820D1*
X5818449Y6220015D2*
X5842049Y6196415D1*
X5865649Y6220015D1*
X5842049Y6196415D2*
Y6172815D1*
X6508444Y6392178D2*
X6532044Y6368578D1*
X6555644Y6392178D1*
X6532044Y6368578D2*
Y6344978D1*
X6764350Y6392187D2*
X6787950Y6368587D1*
X6811550Y6392187D1*
X6787950Y6368587D2*
Y6344987D1*
X6764356Y6215022D2*
X6787956Y6191422D1*
X6811556Y6215022D1*
X6787956Y6191422D2*
Y6167822D1*
X6508450Y6215013D2*
X6532050Y6191413D1*
X6555650Y6215013D1*
X6532050Y6191413D2*
Y6167813D1*
X6175000Y7828600D2*
Y7781400D1*
X6151400Y7805000D2*
X6198600D1*
X6175000Y7618600D2*
Y7571400D1*
X6151400Y7595000D2*
X6198600D1*
X4520000Y8338600D2*
Y8291400D1*
X4496400Y8315000D2*
X4543600D1*
X5839055Y8279072D2*
Y8231872D1*
X5815455Y8255472D2*
X5862655D1*
X6995000Y7148600D2*
Y7101400D1*
X6971400Y7125000D2*
X7018600D1*
X6825000Y7318600D2*
Y7271400D1*
X6801400Y7295000D2*
X6848600D1*
X5445000Y7163600D2*
Y7116400D1*
X5421400Y7140000D2*
X5468600D1*
X5560000Y7163600D2*
Y7116400D1*
X5536400Y7140000D2*
X5583600D1*
X4095000Y7428600D2*
Y7381400D1*
X4071400Y7405000D2*
X4118600D1*
X4095000Y7893600D2*
Y7846400D1*
X4071400Y7870000D2*
X4118600D1*
X6275000Y7518600D2*
Y7471400D1*
X6251400Y7495000D2*
X6298600D1*
X6435000Y8208600D2*
Y8161400D1*
X6411400Y8185000D2*
X6458600D1*
X5445000Y7508600D2*
Y7461400D1*
X5421400Y7485000D2*
X5468600D1*
X5225000Y8058600D2*
Y8011400D1*
X5201400Y8035000D2*
X5248600D1*
X5040000Y6723600D2*
Y6676400D1*
X5016400Y6700000D2*
X5063600D1*
X4645000Y7503600D2*
Y7456400D1*
X4621400Y7480000D2*
X4668600D1*
X5450000Y8708600D2*
Y8661400D1*
X5426400Y8685000D2*
X5473600D1*
X4600000Y6998600D2*
Y6951400D1*
X4576400Y6975000D2*
X4623600D1*
X4955000Y6568600D2*
Y6521400D1*
X4931400Y6545000D2*
X4978600D1*
X4850000Y7373600D2*
Y7326400D1*
X4826400Y7350000D2*
X4873600D1*
X4915000Y7488600D2*
Y7441400D1*
X4891400Y7465000D2*
X4938600D1*
X4670000Y7433600D2*
Y7386400D1*
X4646400Y7410000D2*
X4693600D1*
X5130000Y7838600D2*
Y7791400D1*
X5106400Y7815000D2*
X5153600D1*
X5410000Y7213600D2*
Y7166400D1*
X5386400Y7190000D2*
X5433600D1*
X5270000Y7213600D2*
Y7166400D1*
X5246400Y7190000D2*
X5293600D1*
X5380000Y7123600D2*
Y7076400D1*
X5356400Y7100000D2*
X5403600D1*
X5525000Y7123600D2*
Y7076400D1*
X5501400Y7100000D2*
X5548600D1*
X5230000Y7271252D2*
Y7224052D1*
X5206400Y7247652D2*
X5253600D1*
X5369094Y7253600D2*
Y7206400D1*
X5345494Y7230000D2*
X5392694D1*
X4495000Y7738600D2*
Y7691400D1*
X4471400Y7715000D2*
X4518600D1*
X4495000Y7648600D2*
Y7601400D1*
X4471400Y7625000D2*
X4518600D1*
X4135000Y7693600D2*
Y7646400D1*
X4111400Y7670000D2*
X4158600D1*
X4135000Y7213600D2*
Y7166400D1*
X4111400Y7190000D2*
X4158600D1*
X4040000Y7253600D2*
Y7206400D1*
X4016400Y7230000D2*
X4063600D1*
X5605000Y7258600D2*
Y7211400D1*
X5581400Y7235000D2*
X5628600D1*
X5800000Y7258600D2*
Y7211400D1*
X5776400Y7235000D2*
X5823600D1*
X4530000Y7838600D2*
Y7791400D1*
X4506400Y7815000D2*
X4553600D1*
X5135000Y8563600D2*
Y8516400D1*
X5111400Y8540000D2*
X5158600D1*
X6790000Y7768600D2*
Y7721400D1*
X6766400Y7745000D2*
X6813600D1*
X7055000Y6708600D2*
Y6661400D1*
X7031400Y6685000D2*
X7078600D1*
X7095000Y7133600D2*
Y7086400D1*
X7071400Y7110000D2*
X7118600D1*
X5450000Y8213600D2*
Y8166400D1*
X5426400Y8190000D2*
X5473600D1*
X4330000Y8233600D2*
Y8186400D1*
X4306400Y8210000D2*
X4353600D1*
X4085000Y6463600D2*
Y6416400D1*
X4061400Y6440000D2*
X4108600D1*
X5672500Y8811100D2*
Y8763900D1*
X5648900Y8787500D2*
X5696100D1*
X6680000Y8653600D2*
Y8606400D1*
X6656400Y8630000D2*
X6703600D1*
X6985000Y8683600D2*
Y8636400D1*
X6961400Y8660000D2*
X7008600D1*
X6645000Y8463600D2*
Y8416400D1*
X6621400Y8440000D2*
X6668600D1*
X6497500Y8331100D2*
Y8283900D1*
X6473900Y8307500D2*
X6521100D1*
X3945000Y6733600D2*
Y6686400D1*
X3921400Y6710000D2*
X3968600D1*
X4145000Y8033600D2*
Y7986400D1*
X4121400Y8010000D2*
X4168600D1*
X4355000Y8008600D2*
Y7961400D1*
X4331400Y7985000D2*
X4378600D1*
X4735000Y7978600D2*
Y7931400D1*
X4711400Y7955000D2*
X4758600D1*
X5015000Y8193600D2*
Y8146400D1*
X4991400Y8170000D2*
X5038600D1*
X5680000Y8598600D2*
Y8551400D1*
X5656400Y8575000D2*
X5703600D1*
X5740000Y7893600D2*
Y7846400D1*
X5716400Y7870000D2*
X5763600D1*
X6020000Y7903600D2*
Y7856400D1*
X5996400Y7880000D2*
X6043600D1*
X5725000Y7523600D2*
Y7476400D1*
X5701400Y7500000D2*
X5748600D1*
X6305000Y7253600D2*
Y7206400D1*
X6281400Y7230000D2*
X6328600D1*
X6615000Y6938600D2*
Y6891400D1*
X6591400Y6915000D2*
X6638600D1*
X6960000Y7943600D2*
Y7896400D1*
X6936400Y7920000D2*
X6983600D1*
X4732211Y8088600D2*
Y8041400D1*
X4708611Y8065000D2*
X4755811D1*
X4975000Y8088600D2*
Y8041400D1*
X4951400Y8065000D2*
X4998600D1*
X4520001Y8023600D2*
Y7976400D1*
X4496401Y8000000D2*
X4543601D1*
X4810000Y8023600D2*
Y7976400D1*
X4786400Y8000000D2*
X4833600D1*
X5470000Y8023600D2*
Y7976400D1*
X5446400Y8000000D2*
X5493600D1*
X6240000Y8023600D2*
Y7976400D1*
X6216400Y8000000D2*
X6263600D1*
X5580000Y7983600D2*
Y7936400D1*
X5556400Y7960000D2*
X5603600D1*
X6240000Y7558600D2*
Y7511400D1*
X6216400Y7535000D2*
X6263600D1*
X5575000Y8538600D2*
Y8491400D1*
X5551400Y8515000D2*
X5598600D1*
X5695000Y8538600D2*
Y8491400D1*
X5671400Y8515000D2*
X5718600D1*
X6205000Y7778600D2*
Y7731400D1*
X6181400Y7755000D2*
X6228600D1*
X6205000Y7658600D2*
Y7611400D1*
X6181400Y7635000D2*
X6228600D1*
X5445000Y8438128D2*
Y8390928D1*
X5421400Y8414528D2*
X5468600D1*
X7164301Y6747600D2*
Y6724000D1*
X7187901D1*
X4085801Y8802000D2*
Y8778400D1*
X4109401D1*
X5748408Y8820608D2*
X5772008Y8797008D1*
X5795608Y8820608D1*
X8065617Y9500000D2*
X8459318D1*
Y9342520D1*
X8065617D1*
Y9500000D1*
Y9342520D2*
X8459318D1*
Y9185039D1*
X8065617D1*
Y9342520D1*
Y9185039D2*
X8459318D1*
Y9027559D1*
X8065617D1*
Y9185039D1*
Y9027559D2*
X8459318D1*
Y8870079D1*
X8065617D1*
Y9027559D1*
Y8870079D2*
X8459318D1*
Y8712598D1*
X8065617D1*
Y8870079D1*
Y8712598D2*
X8459318D1*
Y8555118D1*
X8065617D1*
Y8712598D1*
Y8555118D2*
X8459318D1*
Y8397638D1*
X8065617D1*
Y8555118D1*
X8459318Y9500000D2*
X9771654D1*
Y9342520D1*
X8459318D1*
Y9500000D1*
Y9342520D2*
X9771654D1*
Y9185039D1*
X8459318D1*
Y9342520D1*
Y9185039D2*
X9771654D1*
Y9027559D1*
X8459318D1*
Y9185039D1*
Y9027559D2*
X9771654D1*
Y8870079D1*
X8459318D1*
Y9027559D1*
Y8870079D2*
X9771654D1*
Y8712598D1*
X8459318D1*
Y8870079D1*
Y8712598D2*
X9771654D1*
Y8555118D1*
X8459318D1*
Y8712598D1*
Y8555118D2*
X9771654D1*
Y8397638D1*
X8459318D1*
Y8555118D1*
X9771654Y9500000D2*
X10296588D1*
Y9342520D1*
X9771654D1*
Y9500000D1*
Y9342520D2*
X10296588D1*
Y9185039D1*
X9771654D1*
Y9342520D1*
Y9185039D2*
X10296588D1*
Y9027559D1*
X9771654D1*
Y9185039D1*
Y9027559D2*
X10296588D1*
Y8870079D1*
X9771654D1*
Y9027559D1*
Y8870079D2*
X10296588D1*
Y8712598D1*
X9771654D1*
Y8870079D1*
Y8712598D2*
X10296588D1*
Y8555118D1*
X9771654D1*
Y8712598D1*
Y8555118D2*
X10296588D1*
Y8397638D1*
X9771654D1*
Y8555118D1*
X10296588Y9500000D2*
X10821522D1*
Y9342520D1*
X10296588D1*
Y9500000D1*
Y9342520D2*
X10821522D1*
Y9185039D1*
X10296588D1*
Y9342520D1*
Y9185039D2*
X10821522D1*
Y9027559D1*
X10296588D1*
Y9185039D1*
Y9027559D2*
X10821522D1*
Y8870079D1*
X10296588D1*
Y9027559D1*
Y8870079D2*
X10821522D1*
Y8712598D1*
X10296588D1*
Y8870079D1*
Y8712598D2*
X10821522D1*
Y8555118D1*
X10296588D1*
Y8712598D1*
Y8555118D2*
X10821522D1*
Y8397638D1*
X10296588D1*
Y8555118D1*
X8196850Y9287380D2*
Y9240180D1*
X8173250Y9263780D2*
X8220450D1*
X8173250Y9129899D2*
X8220450Y9082699D1*
Y9129899D2*
X8173250Y9082699D1*
Y8972419D2*
X8196850Y8948819D1*
X8220450Y8972419D1*
X8196850Y8948819D2*
Y8925219D1*
X8173250Y8791339D2*
X8220450D1*
X8196850D2*
Y8767739D1*
X8173250Y8657458D2*
X8196850Y8633858D1*
X8220450Y8657458D1*
X8196850Y8499978D2*
Y8476378D1*
X8220450D1*
X8197528Y9454775D2*
X8189923Y9462469D1*
X8178427Y9466271D1*
X8163128D1*
X8151632Y9462469D1*
X8143939Y9454775D1*
Y9447170D1*
X8147830Y9439477D1*
X8151632Y9435674D1*
X8159237Y9431872D1*
X8182230Y9424178D1*
X8189923Y9420376D1*
X8193726Y9416485D1*
X8197528Y9408879D1*
Y9397383D1*
X8189923Y9389778D1*
X8178427Y9385887D1*
X8163128D1*
X8151632Y9389778D1*
X8143939Y9397383D1*
X8226122Y9439477D2*
X8249026Y9385887D1*
X8241421Y9370589D1*
X8233727Y9362895D1*
X8226122Y9359093D1*
X8222231D1*
X8272018Y9439477D2*
X8249026Y9385887D1*
X8296721Y9439477D2*
Y9385887D1*
Y9424178D2*
X8308217Y9435674D1*
X8315910Y9439477D1*
X8327318D1*
X8335011Y9435674D1*
X8338814Y9424178D1*
Y9385887D1*
Y9424178D2*
X8350310Y9435674D1*
X8358003Y9439477D1*
X8369411D1*
X8377105Y9435674D1*
X8380996Y9424178D1*
Y9385887D1*
X9003795Y9466271D2*
Y9385887D1*
X9057385Y9466271D2*
Y9385887D1*
X9003795Y9427981D2*
X9057385D1*
X9101189Y9439477D2*
X9093584Y9435674D1*
X9085890Y9427981D1*
X9082088Y9416485D1*
Y9408879D1*
X9085890Y9397383D1*
X9093584Y9389778D1*
X9101189Y9385887D1*
X9112685D1*
X9120378Y9389778D1*
X9127983Y9397383D1*
X9131874Y9408879D1*
Y9416485D1*
X9127983Y9427981D1*
X9120378Y9435674D1*
X9112685Y9439477D1*
X9101189D1*
X9156577Y9466271D2*
Y9385887D1*
X9181280Y9416485D2*
X9227176D1*
Y9424178D1*
X9223373Y9431872D1*
X9219571Y9435674D1*
X9211877Y9439477D1*
X9200381D1*
X9192776Y9435674D1*
X9185082Y9427981D1*
X9181280Y9416485D1*
Y9408879D1*
X9185082Y9397383D1*
X9192776Y9389778D1*
X9200381Y9385887D1*
X9211877D1*
X9219571Y9389778D1*
X9227176Y9397383D1*
X8504863Y9270500D2*
X8539263D1*
X8550759Y9274391D1*
X8554650Y9278194D1*
X8558453Y9285799D1*
Y9293492D1*
X8554650Y9301098D1*
X8550759Y9304988D1*
X8539263Y9308791D1*
X8504863D1*
Y9228407D1*
X8531658Y9270500D2*
X8558453Y9228407D1*
X8602257Y9281996D2*
X8594652Y9278194D1*
X8586958Y9270500D1*
X8583155Y9259004D1*
Y9251399D1*
X8586958Y9239903D1*
X8594652Y9232298D1*
X8602257Y9228407D1*
X8613753D1*
X8621446Y9232298D1*
X8629051Y9239903D1*
X8632942Y9251399D1*
Y9259004D1*
X8629051Y9270500D1*
X8621446Y9278194D1*
X8613753Y9281996D1*
X8602257D1*
X8657645D2*
Y9243706D1*
X8661448Y9232298D1*
X8669141Y9228407D1*
X8680637D1*
X8688242Y9232298D1*
X8699738Y9243706D1*
Y9281996D2*
Y9228407D1*
X8724441Y9281996D2*
Y9228407D1*
Y9266698D2*
X8735937Y9278194D1*
X8743631Y9281996D1*
X8755038D1*
X8762732Y9278194D1*
X8766534Y9266698D1*
Y9228407D1*
X8837133Y9308791D2*
Y9228407D1*
Y9270500D2*
X8829528Y9278194D1*
X8821834Y9281996D1*
X8810338D1*
X8802733Y9278194D1*
X8795040Y9270500D1*
X8791237Y9259004D1*
Y9251399D1*
X8795040Y9239903D1*
X8802733Y9232298D1*
X8810338Y9228407D1*
X8821834D1*
X8829528Y9232298D1*
X8837133Y9239903D1*
X8939597Y9293404D2*
X8947291Y9297295D1*
X8958787Y9308703D1*
Y9228407D1*
X9029386Y9308703D2*
X8991183D1*
X8987381Y9274303D1*
X8991183Y9278105D1*
X9002679Y9281996D1*
X9014087D1*
X9025583Y9278105D1*
X9033277Y9270500D1*
X9037079Y9259004D1*
Y9251399D1*
X9033277Y9239903D1*
X9025583Y9232210D1*
X9014087Y9228407D1*
X9002679D1*
X8991183Y9232210D1*
X8987381Y9236101D1*
X8983490Y9243706D1*
X9139543Y9281996D2*
Y9228407D1*
Y9266698D2*
X9151040Y9278194D1*
X9158733Y9281996D1*
X9170141D1*
X9177834Y9278194D1*
X9181637Y9266698D1*
Y9228407D1*
Y9266698D2*
X9193133Y9278194D1*
X9200826Y9281996D1*
X9212234D1*
X9219927Y9278194D1*
X9223818Y9266698D1*
Y9228407D1*
X9248521Y9308791D2*
X9252324Y9304988D1*
X9256215Y9308791D1*
X9252324Y9312682D1*
X9248521Y9308791D1*
X9252324Y9281996D2*
Y9228407D1*
X9280918Y9308791D2*
Y9228407D1*
X8504863Y9113020D2*
X8539263D1*
X8550759Y9116911D1*
X8554650Y9120714D1*
X8558453Y9128319D1*
Y9136012D1*
X8554650Y9143617D1*
X8550759Y9147508D1*
X8539263Y9151311D1*
X8504863D1*
Y9070927D1*
X8531658Y9113020D2*
X8558453Y9070927D1*
X8602257Y9124516D2*
X8594652Y9120714D1*
X8586958Y9113020D1*
X8583155Y9101524D1*
Y9093919D1*
X8586958Y9082423D1*
X8594652Y9074818D1*
X8602257Y9070927D1*
X8613753D1*
X8621446Y9074818D1*
X8629051Y9082423D1*
X8632942Y9093919D1*
Y9101524D1*
X8629051Y9113020D1*
X8621446Y9120714D1*
X8613753Y9124516D1*
X8602257D1*
X8657645D2*
Y9086225D1*
X8661448Y9074818D1*
X8669141Y9070927D1*
X8680637D1*
X8688242Y9074818D1*
X8699738Y9086225D1*
Y9124516D2*
Y9070927D1*
X8724441Y9124516D2*
Y9070927D1*
Y9109217D2*
X8735937Y9120714D1*
X8743631Y9124516D1*
X8755038D1*
X8762732Y9120714D1*
X8766534Y9109217D1*
Y9070927D1*
X8837133Y9151311D2*
Y9070927D1*
Y9113020D2*
X8829528Y9120714D1*
X8821834Y9124516D1*
X8810338D1*
X8802733Y9120714D1*
X8795040Y9113020D1*
X8791237Y9101524D1*
Y9093919D1*
X8795040Y9082423D1*
X8802733Y9074818D1*
X8810338Y9070927D1*
X8821834D1*
X8829528Y9074818D1*
X8837133Y9082423D1*
X8947291Y9151222D2*
X8989296D1*
X8966392Y9120625D1*
X8977888D1*
X8985493Y9116823D1*
X8989296Y9113020D1*
X8993187Y9101524D1*
Y9093919D1*
X8989296Y9082423D1*
X8981691Y9074729D1*
X8970195Y9070927D1*
X8958699D1*
X8947291Y9074729D1*
X8943488Y9078620D1*
X8939597Y9086225D1*
X9063785Y9151222D2*
X9025583D1*
X9021781Y9116823D1*
X9025583Y9120625D1*
X9037079Y9124516D1*
X9048487D1*
X9059983Y9120625D1*
X9067676Y9113020D1*
X9071479Y9101524D1*
Y9093919D1*
X9067676Y9082423D1*
X9059983Y9074729D1*
X9048487Y9070927D1*
X9037079D1*
X9025583Y9074729D1*
X9021781Y9078620D1*
X9017890Y9086225D1*
X9099984Y9078620D2*
X9096182Y9074729D1*
X9099984Y9070927D1*
X9103875Y9074729D1*
X9099984Y9078620D1*
X9166869Y9070927D2*
Y9151222D1*
X9128578Y9097721D1*
X9185970D1*
X9218366Y9151222D2*
X9260371D1*
X9237467Y9120625D1*
X9248963D1*
X9256568Y9116823D1*
X9260371Y9113020D1*
X9264262Y9101524D1*
Y9093919D1*
X9260371Y9082423D1*
X9252766Y9074729D1*
X9241270Y9070927D1*
X9229774D1*
X9218366Y9074729D1*
X9214564Y9078620D1*
X9210673Y9086225D1*
X9366726Y9124516D2*
Y9070927D1*
Y9109217D2*
X9378222Y9120714D1*
X9385916Y9124516D1*
X9397324D1*
X9405017Y9120714D1*
X9408820Y9109217D1*
Y9070927D1*
Y9109217D2*
X9420316Y9120714D1*
X9428009Y9124516D1*
X9439417D1*
X9447110Y9120714D1*
X9451001Y9109217D1*
Y9070927D1*
X9475704Y9151311D2*
X9479507Y9147508D1*
X9483398Y9151311D1*
X9479507Y9155202D1*
X9475704Y9151311D1*
X9479507Y9124516D2*
Y9070927D1*
X9508100Y9151311D2*
Y9070927D1*
X8504863Y8955540D2*
X8539263D1*
X8550759Y8959431D1*
X8554650Y8963233D1*
X8558453Y8970838D1*
Y8978532D1*
X8554650Y8986137D1*
X8550759Y8990028D1*
X8539263Y8993830D1*
X8504863D1*
Y8913446D1*
X8531658Y8955540D2*
X8558453Y8913446D1*
X8602257Y8967036D2*
X8594652Y8963233D1*
X8586958Y8955540D1*
X8583155Y8944044D1*
Y8936439D1*
X8586958Y8924942D1*
X8594652Y8917337D1*
X8602257Y8913446D1*
X8613753D1*
X8621446Y8917337D1*
X8629051Y8924942D1*
X8632942Y8936439D1*
Y8944044D1*
X8629051Y8955540D1*
X8621446Y8963233D1*
X8613753Y8967036D1*
X8602257D1*
X8657645D2*
Y8928745D1*
X8661448Y8917337D1*
X8669141Y8913446D1*
X8680637D1*
X8688242Y8917337D1*
X8699738Y8928745D1*
Y8967036D2*
Y8913446D1*
X8724441Y8967036D2*
Y8913446D1*
Y8951737D2*
X8735937Y8963233D1*
X8743631Y8967036D1*
X8755038D1*
X8762732Y8963233D1*
X8766534Y8951737D1*
Y8913446D1*
X8837133Y8993830D2*
Y8913446D1*
Y8955540D2*
X8829528Y8963233D1*
X8821834Y8967036D1*
X8810338D1*
X8802733Y8963233D1*
X8795040Y8955540D1*
X8791237Y8944044D1*
Y8936439D1*
X8795040Y8924942D1*
X8802733Y8917337D1*
X8810338Y8913446D1*
X8821834D1*
X8829528Y8917337D1*
X8837133Y8924942D1*
X8977888Y8913446D2*
Y8993742D1*
X8939597Y8940241D1*
X8996989D1*
X9025583Y8974641D2*
Y8978443D1*
X9029386Y8986137D1*
X9033188Y8989939D1*
X9040882Y8993742D1*
X9056180D1*
X9063785Y8989939D1*
X9067588Y8986137D1*
X9071479Y8978443D1*
Y8970838D1*
X9067588Y8963145D1*
X9059983Y8951737D1*
X9021692Y8913446D1*
X9075281D1*
X9177746Y8967036D2*
Y8913446D1*
Y8951737D2*
X9189242Y8963233D1*
X9196935Y8967036D1*
X9208343D1*
X9216036Y8963233D1*
X9219839Y8951737D1*
Y8913446D1*
Y8951737D2*
X9231335Y8963233D1*
X9239029Y8967036D1*
X9250436D1*
X9258130Y8963233D1*
X9262021Y8951737D1*
Y8913446D1*
X9286724Y8993830D2*
X9290526Y8990028D1*
X9294417Y8993830D1*
X9290526Y8997721D1*
X9286724Y8993830D1*
X9290526Y8967036D2*
Y8913446D1*
X9319120Y8993830D2*
Y8913446D1*
X8504863Y8798059D2*
X8539263D1*
X8550759Y8801950D1*
X8554650Y8805753D1*
X8558453Y8813358D1*
Y8821051D1*
X8554650Y8828657D1*
X8550759Y8832548D1*
X8539263Y8836350D1*
X8504863D1*
Y8755966D1*
X8531658Y8798059D2*
X8558453Y8755966D1*
X8602257Y8809555D2*
X8594652Y8805753D1*
X8586958Y8798059D1*
X8583155Y8786563D1*
Y8778958D1*
X8586958Y8767462D1*
X8594652Y8759857D1*
X8602257Y8755966D1*
X8613753D1*
X8621446Y8759857D1*
X8629051Y8767462D1*
X8632942Y8778958D1*
Y8786563D1*
X8629051Y8798059D1*
X8621446Y8805753D1*
X8613753Y8809555D1*
X8602257D1*
X8657645D2*
Y8771265D1*
X8661448Y8759857D1*
X8669141Y8755966D1*
X8680637D1*
X8688242Y8759857D1*
X8699738Y8771265D1*
Y8809555D2*
Y8755966D1*
X8724441Y8809555D2*
Y8755966D1*
Y8794257D2*
X8735937Y8805753D1*
X8743631Y8809555D1*
X8755038D1*
X8762732Y8805753D1*
X8766534Y8794257D1*
Y8755966D1*
X8837133Y8836350D2*
Y8755966D1*
Y8798059D2*
X8829528Y8805753D1*
X8821834Y8809555D1*
X8810338D1*
X8802733Y8805753D1*
X8795040Y8798059D1*
X8791237Y8786563D1*
Y8778958D1*
X8795040Y8767462D1*
X8802733Y8759857D1*
X8810338Y8755966D1*
X8821834D1*
X8829528Y8759857D1*
X8837133Y8767462D1*
X8977888Y8755966D2*
Y8836262D1*
X8939597Y8782761D1*
X8996989D1*
X9036991Y8755966D2*
X9075281Y8836262D1*
X9021692D1*
X9103787Y8763660D2*
X9099984Y8759769D1*
X9103787Y8755966D1*
X9107678Y8759769D1*
X9103787Y8763660D1*
X9136271Y8817161D2*
Y8820963D1*
X9140074Y8828657D1*
X9143877Y8832459D1*
X9151570Y8836262D1*
X9166869D1*
X9174474Y8832459D1*
X9178276Y8828657D1*
X9182167Y8820963D1*
Y8813358D1*
X9178276Y8805664D1*
X9170671Y8794257D1*
X9132381Y8755966D1*
X9185970D1*
X9248963D2*
Y8836262D1*
X9210673Y8782761D1*
X9268065D1*
X9370529Y8809555D2*
Y8755966D1*
Y8794257D2*
X9382025Y8805753D1*
X9389718Y8809555D1*
X9401126D1*
X9408820Y8805753D1*
X9412622Y8794257D1*
Y8755966D1*
Y8794257D2*
X9424118Y8805753D1*
X9431812Y8809555D1*
X9443219D1*
X9450913Y8805753D1*
X9454804Y8794257D1*
Y8755966D1*
X9479507Y8836350D2*
X9483309Y8832548D1*
X9487200Y8836350D1*
X9483309Y8840241D1*
X9479507Y8836350D1*
X9483309Y8809555D2*
Y8755966D1*
X9511903Y8836350D2*
Y8755966D1*
X8504863Y8640579D2*
X8539263D1*
X8550759Y8644470D1*
X8554650Y8648273D1*
X8558453Y8655878D1*
Y8663571D1*
X8554650Y8671176D1*
X8550759Y8675067D1*
X8539263Y8678870D1*
X8504863D1*
Y8598486D1*
X8531658Y8640579D2*
X8558453Y8598486D1*
X8602257Y8652075D2*
X8594652Y8648273D1*
X8586958Y8640579D1*
X8583155Y8629083D1*
Y8621478D1*
X8586958Y8609982D1*
X8594652Y8602377D1*
X8602257Y8598486D1*
X8613753D1*
X8621446Y8602377D1*
X8629051Y8609982D1*
X8632942Y8621478D1*
Y8629083D1*
X8629051Y8640579D1*
X8621446Y8648273D1*
X8613753Y8652075D1*
X8602257D1*
X8657645D2*
Y8613784D1*
X8661448Y8602377D1*
X8669141Y8598486D1*
X8680637D1*
X8688242Y8602377D1*
X8699738Y8613784D1*
Y8652075D2*
Y8598486D1*
X8724441Y8652075D2*
Y8598486D1*
Y8636776D2*
X8735937Y8648273D1*
X8743631Y8652075D1*
X8755038D1*
X8762732Y8648273D1*
X8766534Y8636776D1*
Y8598486D1*
X8837133Y8678870D2*
Y8598486D1*
Y8640579D2*
X8829528Y8648273D1*
X8821834Y8652075D1*
X8810338D1*
X8802733Y8648273D1*
X8795040Y8640579D1*
X8791237Y8629083D1*
Y8621478D1*
X8795040Y8609982D1*
X8802733Y8602377D1*
X8810338Y8598486D1*
X8821834D1*
X8829528Y8602377D1*
X8837133Y8609982D1*
X8977888Y8598486D2*
Y8678781D1*
X8939597Y8625280D1*
X8996989D1*
X9036991Y8598486D2*
X9075281Y8678781D1*
X9021692D1*
X9103787Y8606179D2*
X9099984Y8602288D1*
X9103787Y8598486D1*
X9107678Y8602288D1*
X9103787Y8606179D1*
X9136271Y8659680D2*
Y8663483D1*
X9140074Y8671176D1*
X9143877Y8674979D1*
X9151570Y8678781D1*
X9166869D1*
X9174474Y8674979D1*
X9178276Y8671176D1*
X9182167Y8663483D1*
Y8655878D1*
X9178276Y8648184D1*
X9170671Y8636776D1*
X9132381Y8598486D1*
X9185970D1*
X9248963D2*
Y8678781D1*
X9210673Y8625280D1*
X9268065D1*
X9370529Y8652075D2*
Y8598486D1*
Y8636776D2*
X9382025Y8648273D1*
X9389718Y8652075D1*
X9401126D1*
X9408820Y8648273D1*
X9412622Y8636776D1*
Y8598486D1*
Y8636776D2*
X9424118Y8648273D1*
X9431812Y8652075D1*
X9443219D1*
X9450913Y8648273D1*
X9454804Y8636776D1*
Y8598486D1*
X9479507Y8678870D2*
X9483309Y8675067D1*
X9487200Y8678870D1*
X9483309Y8682761D1*
X9479507Y8678870D1*
X9483309Y8652075D2*
Y8598486D1*
X9511903Y8678870D2*
Y8598486D1*
X8504863Y8483099D2*
X8539263D1*
X8550759Y8486990D1*
X8554650Y8490792D1*
X8558453Y8498397D1*
Y8506091D1*
X8554650Y8513696D1*
X8550759Y8517587D1*
X8539263Y8521389D1*
X8504863D1*
Y8441005D1*
X8531658Y8483099D2*
X8558453Y8441005D1*
X8602257Y8494595D2*
X8594652Y8490792D1*
X8586958Y8483099D1*
X8583155Y8471603D1*
Y8463998D1*
X8586958Y8452502D1*
X8594652Y8444896D1*
X8602257Y8441005D1*
X8613753D1*
X8621446Y8444896D1*
X8629051Y8452502D1*
X8632942Y8463998D1*
Y8471603D1*
X8629051Y8483099D1*
X8621446Y8490792D1*
X8613753Y8494595D1*
X8602257D1*
X8657645D2*
Y8456304D1*
X8661448Y8444896D1*
X8669141Y8441005D1*
X8680637D1*
X8688242Y8444896D1*
X8699738Y8456304D1*
Y8494595D2*
Y8441005D1*
X8724441Y8494595D2*
Y8441005D1*
Y8479296D2*
X8735937Y8490792D1*
X8743631Y8494595D1*
X8755038D1*
X8762732Y8490792D1*
X8766534Y8479296D1*
Y8441005D1*
X8837133Y8521389D2*
Y8441005D1*
Y8483099D2*
X8829528Y8490792D1*
X8821834Y8494595D1*
X8810338D1*
X8802733Y8490792D1*
X8795040Y8483099D1*
X8791237Y8471603D1*
Y8463998D1*
X8795040Y8452502D1*
X8802733Y8444896D1*
X8810338Y8441005D1*
X8821834D1*
X8829528Y8444896D1*
X8837133Y8452502D1*
X8939597Y8506002D2*
X8947291Y8509893D1*
X8958787Y8521301D1*
Y8441005D1*
X9006482Y8521301D2*
X8994986Y8517498D1*
X8987292Y8506002D1*
X8983490Y8486901D1*
Y8475405D1*
X8987292Y8456304D1*
X8994986Y8444808D1*
X9006482Y8441005D1*
X9014087D1*
X9025583Y8444808D1*
X9033188Y8456304D1*
X9037079Y8475405D1*
Y8486901D1*
X9033188Y8506002D1*
X9025583Y8517498D1*
X9014087Y8521301D1*
X9006482D1*
X9033188Y8506002D2*
X8987292Y8456304D1*
X9084774Y8521301D2*
X9073278Y8517498D1*
X9065584Y8506002D1*
X9061782Y8486901D1*
Y8475405D1*
X9065584Y8456304D1*
X9073278Y8444808D1*
X9084774Y8441005D1*
X9092379D1*
X9103875Y8444808D1*
X9111480Y8456304D1*
X9115371Y8475405D1*
Y8486901D1*
X9111480Y8506002D1*
X9103875Y8517498D1*
X9092379Y8521301D1*
X9084774D1*
X9111480Y8506002D2*
X9065584Y8456304D1*
X9217836Y8494595D2*
Y8441005D1*
Y8479296D2*
X9229332Y8490792D1*
X9237025Y8494595D1*
X9248433D1*
X9256126Y8490792D1*
X9259929Y8479296D1*
Y8441005D1*
Y8479296D2*
X9271425Y8490792D1*
X9279118Y8494595D1*
X9290526D1*
X9298220Y8490792D1*
X9302111Y8479296D1*
Y8441005D1*
X9326813Y8521389D2*
X9330616Y8517587D1*
X9334507Y8521389D1*
X9330616Y8525280D1*
X9326813Y8521389D1*
X9330616Y8494595D2*
Y8441005D1*
X9359210Y8521389D2*
Y8441005D1*
X9861427Y9424178D2*
X9895915D1*
X9907323Y9427981D1*
X9911214Y9431872D1*
X9915016Y9439477D1*
Y9450973D1*
X9911214Y9458578D1*
X9907323Y9462469D1*
X9895915Y9466271D1*
X9861427D1*
Y9385887D1*
X9939719Y9466271D2*
Y9385887D1*
X10010317Y9439477D2*
Y9385887D1*
Y9427981D2*
X10002712Y9435674D1*
X9995019Y9439477D1*
X9983611D1*
X9975918Y9435674D1*
X9968313Y9427981D1*
X9964422Y9416485D1*
Y9408879D1*
X9968313Y9397383D1*
X9975918Y9389778D1*
X9983611Y9385887D1*
X9995019D1*
X10002712Y9389778D1*
X10010317Y9397383D1*
X10046516Y9466271D2*
Y9401186D1*
X10050319Y9389778D1*
X10058012Y9385887D1*
X10065617D1*
X10035020Y9439477D2*
X10061815D1*
X10090320Y9416485D2*
X10136216D1*
Y9424178D1*
X10132414Y9431872D1*
X10128611Y9435674D1*
X10120918Y9439477D1*
X10109421D1*
X10101816Y9435674D1*
X10094123Y9427981D1*
X10090320Y9416485D1*
Y9408879D1*
X10094123Y9397383D1*
X10101816Y9389778D1*
X10109421Y9385887D1*
X10120918D1*
X10128611Y9389778D1*
X10136216Y9397383D1*
X10206815Y9466271D2*
Y9385887D1*
Y9427981D2*
X10199210Y9435674D1*
X10191516Y9439477D1*
X10180020D1*
X10172415Y9435674D1*
X10164721Y9427981D1*
X10160919Y9416485D1*
Y9408879D1*
X10164721Y9397383D1*
X10172415Y9389778D1*
X10180020Y9385887D1*
X10191516D1*
X10199210Y9389778D1*
X10206815Y9397383D1*
X9817199Y9308791D2*
X9847797Y9270500D1*
Y9228407D1*
X9878394Y9308791D2*
X9847797Y9270500D1*
X9903097Y9259004D2*
X9948992D1*
Y9266698D1*
X9945190Y9274391D1*
X9941387Y9278194D1*
X9933694Y9281996D1*
X9922198D1*
X9914593Y9278194D1*
X9906899Y9270500D1*
X9903097Y9259004D1*
Y9251399D1*
X9906899Y9239903D1*
X9914593Y9232298D1*
X9922198Y9228407D1*
X9933694D1*
X9941387Y9232298D1*
X9948992Y9239903D1*
X10015788Y9270500D2*
X10011986Y9278194D1*
X10000490Y9281996D1*
X9988994D1*
X9977498Y9278194D1*
X9973695Y9270500D1*
X9977498Y9262895D1*
X9985191Y9259004D1*
X10004292Y9255202D1*
X10011986Y9251399D1*
X10015788Y9243706D1*
Y9239903D1*
X10011986Y9232298D1*
X10000490Y9228407D1*
X9988994D1*
X9977498Y9232298D1*
X9973695Y9239903D1*
X9817199Y9151311D2*
X9847797Y9113020D1*
Y9070927D1*
X9878394Y9151311D2*
X9847797Y9113020D1*
X9903097Y9101524D2*
X9948992D1*
Y9109217D1*
X9945190Y9116911D1*
X9941387Y9120714D1*
X9933694Y9124516D1*
X9922198D1*
X9914593Y9120714D1*
X9906899Y9113020D1*
X9903097Y9101524D1*
Y9093919D1*
X9906899Y9082423D1*
X9914593Y9074818D1*
X9922198Y9070927D1*
X9933694D1*
X9941387Y9074818D1*
X9948992Y9082423D1*
X10015788Y9113020D2*
X10011986Y9120714D1*
X10000490Y9124516D1*
X9988994D1*
X9977498Y9120714D1*
X9973695Y9113020D1*
X9977498Y9105415D1*
X9985191Y9101524D1*
X10004292Y9097721D1*
X10011986Y9093919D1*
X10015788Y9086225D1*
Y9082423D1*
X10011986Y9074818D1*
X10000490Y9070927D1*
X9988994D1*
X9977498Y9074818D1*
X9973695Y9082423D1*
X9817199Y8993830D2*
X9847797Y8955540D1*
Y8913446D1*
X9878394Y8993830D2*
X9847797Y8955540D1*
X9903097Y8944044D2*
X9948992D1*
Y8951737D1*
X9945190Y8959431D1*
X9941387Y8963233D1*
X9933694Y8967036D1*
X9922198D1*
X9914593Y8963233D1*
X9906899Y8955540D1*
X9903097Y8944044D1*
Y8936439D1*
X9906899Y8924942D1*
X9914593Y8917337D1*
X9922198Y8913446D1*
X9933694D1*
X9941387Y8917337D1*
X9948992Y8924942D1*
X10015788Y8955540D2*
X10011986Y8963233D1*
X10000490Y8967036D1*
X9988994D1*
X9977498Y8963233D1*
X9973695Y8955540D1*
X9977498Y8947935D1*
X9985191Y8944044D1*
X10004292Y8940241D1*
X10011986Y8936439D1*
X10015788Y8928745D1*
Y8924942D1*
X10011986Y8917337D1*
X10000490Y8913446D1*
X9988994D1*
X9977498Y8917337D1*
X9973695Y8924942D1*
X9817199Y8836350D2*
X9847797Y8798059D1*
Y8755966D1*
X9878394Y8836350D2*
X9847797Y8798059D1*
X9903097Y8786563D2*
X9948992D1*
Y8794257D1*
X9945190Y8801950D1*
X9941387Y8805753D1*
X9933694Y8809555D1*
X9922198D1*
X9914593Y8805753D1*
X9906899Y8798059D1*
X9903097Y8786563D1*
Y8778958D1*
X9906899Y8767462D1*
X9914593Y8759857D1*
X9922198Y8755966D1*
X9933694D1*
X9941387Y8759857D1*
X9948992Y8767462D1*
X10015788Y8798059D2*
X10011986Y8805753D1*
X10000490Y8809555D1*
X9988994D1*
X9977498Y8805753D1*
X9973695Y8798059D1*
X9977498Y8790454D1*
X9985191Y8786563D1*
X10004292Y8782761D1*
X10011986Y8778958D1*
X10015788Y8771265D1*
Y8767462D1*
X10011986Y8759857D1*
X10000490Y8755966D1*
X9988994D1*
X9977498Y8759857D1*
X9973695Y8767462D1*
X9870789Y8678870D2*
Y8598486D1*
X9817199Y8678870D1*
Y8598486D1*
X9914593Y8652075D2*
X9906988Y8648273D1*
X9899294Y8640579D1*
X9895491Y8629083D1*
Y8621478D1*
X9899294Y8609982D1*
X9906988Y8602377D1*
X9914593Y8598486D1*
X9926089D1*
X9933782Y8602377D1*
X9941387Y8609982D1*
X9945278Y8621478D1*
Y8629083D1*
X9941387Y8640579D1*
X9933782Y8648273D1*
X9926089Y8652075D1*
X9914593D1*
X9870789Y8521389D2*
Y8441005D1*
X9817199Y8521389D1*
Y8441005D1*
X9914593Y8494595D2*
X9906988Y8490792D1*
X9899294Y8483099D1*
X9895491Y8471603D1*
Y8463998D1*
X9899294Y8452502D1*
X9906988Y8444896D1*
X9914593Y8441005D1*
X9926089D1*
X9933782Y8444896D1*
X9941387Y8452502D1*
X9945278Y8463998D1*
Y8471603D1*
X9941387Y8483099D1*
X9933782Y8490792D1*
X9926089Y8494595D1*
X9914593D1*
X10340567Y9466271D2*
X10332962Y9462557D1*
X10325269Y9454864D1*
X10321466Y9447170D1*
X10317575Y9435674D1*
Y9416573D1*
X10321466Y9405077D1*
X10325269Y9397472D1*
X10332962Y9389778D1*
X10340567Y9385976D1*
X10355866D1*
X10363560Y9389778D1*
X10371165Y9397472D1*
X10374967Y9405077D1*
X10378858Y9416573D1*
Y9435674D1*
X10374967Y9447170D1*
X10371165Y9454864D1*
X10363560Y9462557D1*
X10355866Y9466271D1*
X10340567D1*
X10352064Y9401274D2*
X10374967Y9378282D1*
X10403561Y9439477D2*
Y9401186D1*
X10407364Y9389778D1*
X10415057Y9385887D1*
X10426553D1*
X10434158Y9389778D1*
X10445654Y9401186D1*
Y9439477D2*
Y9385887D1*
X10516253Y9439477D2*
Y9385887D1*
Y9427981D2*
X10508648Y9435674D1*
X10500954Y9439477D1*
X10489547D1*
X10481853Y9435674D1*
X10474248Y9427981D1*
X10470357Y9416485D1*
Y9408879D1*
X10474248Y9397383D1*
X10481853Y9389778D1*
X10489547Y9385887D1*
X10500954D1*
X10508648Y9389778D1*
X10516253Y9397383D1*
X10540956Y9439477D2*
Y9385887D1*
Y9424178D2*
X10552452Y9435674D1*
X10560145Y9439477D1*
X10571553D1*
X10579246Y9435674D1*
X10583049Y9424178D1*
Y9385887D1*
X10619248Y9466271D2*
Y9401186D1*
X10623050Y9389778D1*
X10630744Y9385887D1*
X10638349D1*
X10607752Y9439477D2*
X10634546D1*
X10663052Y9466271D2*
X10666854Y9462469D1*
X10670745Y9466271D1*
X10666854Y9470162D1*
X10663052Y9466271D1*
X10666854Y9439477D2*
Y9385887D1*
X10706944Y9466271D2*
Y9401186D1*
X10710747Y9389778D1*
X10718440Y9385887D1*
X10726045D1*
X10695448Y9439477D2*
X10722243D1*
X10754639D2*
X10777543Y9385887D1*
X10769938Y9370589D1*
X10762244Y9362895D1*
X10754639Y9359093D1*
X10750748D1*
X10800535Y9439477D2*
X10777543Y9385887D1*
X10380424Y9228407D2*
Y9308703D1*
X10342134Y9255202D1*
X10399526D1*
X10462519Y9228407D2*
Y9308703D1*
X10424228Y9255202D1*
X10481620D1*
X10544614Y9228407D2*
Y9308703D1*
X10506323Y9255202D1*
X10563715D1*
X10342134Y9135924D2*
X10349827Y9139815D1*
X10361323Y9151222D1*
Y9070927D1*
X10389917Y9132121D2*
Y9135924D1*
X10393720Y9143617D1*
X10397522Y9147420D1*
X10405216Y9151222D1*
X10420514D1*
X10428119Y9147420D1*
X10431922Y9143617D1*
X10435813Y9135924D1*
Y9128319D1*
X10431922Y9120625D1*
X10424317Y9109217D1*
X10386026Y9070927D1*
X10439615D1*
X10342134Y8978443D2*
X10349827Y8982334D1*
X10361323Y8993742D1*
Y8913446D1*
X10393720Y8993742D2*
X10435724D1*
X10412821Y8963145D1*
X10424317D1*
X10431922Y8959342D1*
X10435724Y8955540D1*
X10439615Y8944044D1*
Y8936439D1*
X10435724Y8924942D1*
X10428119Y8917249D1*
X10416623Y8913446D1*
X10405127D1*
X10393720Y8917249D1*
X10389917Y8921140D1*
X10386026Y8928745D1*
X10468209Y8974641D2*
Y8978443D1*
X10472012Y8986137D1*
X10475814Y8989939D1*
X10483508Y8993742D1*
X10498806D1*
X10506411Y8989939D1*
X10510214Y8986137D1*
X10514105Y8978443D1*
Y8970838D1*
X10510214Y8963145D1*
X10502609Y8951737D1*
X10464318Y8913446D1*
X10517908D1*
X10342134Y8820963D2*
X10349827Y8824854D1*
X10361323Y8836262D1*
Y8755966D1*
X10405127Y8836262D2*
X10393720Y8832459D1*
X10389829Y8824854D1*
Y8817161D1*
X10393720Y8809555D1*
X10401325Y8805664D1*
X10416623Y8801862D1*
X10428119Y8798059D1*
X10435724Y8790366D1*
X10439527Y8782761D1*
Y8771265D1*
X10435724Y8763660D1*
X10431922Y8759769D1*
X10420426Y8755966D1*
X10405127D1*
X10393720Y8759769D1*
X10389829Y8763660D1*
X10386026Y8771265D1*
Y8782761D1*
X10389829Y8790366D1*
X10397522Y8798059D1*
X10408930Y8801862D1*
X10424228Y8805664D1*
X10431922Y8809555D1*
X10435724Y8817161D1*
Y8824854D1*
X10431922Y8832459D1*
X10420426Y8836262D1*
X10405127D1*
X10388030Y8667374D2*
X10384227Y8674979D1*
X10372731Y8678781D1*
X10365126D1*
X10353630Y8674979D1*
X10345936Y8663483D1*
X10342134Y8644382D1*
Y8625280D1*
X10345936Y8609982D1*
X10353630Y8602288D1*
X10365126Y8598486D1*
X10368928D1*
X10380336Y8602288D1*
X10388030Y8609982D1*
X10391832Y8621478D1*
Y8625280D1*
X10388030Y8636776D1*
X10380336Y8644382D1*
X10368928Y8648184D1*
X10365126D1*
X10353630Y8644382D1*
X10345936Y8636776D1*
X10342134Y8625280D1*
Y8506002D2*
X10349827Y8509893D1*
X10361323Y8521301D1*
Y8441005D1*
X10389917Y8502200D2*
Y8506002D1*
X10393720Y8513696D1*
X10397522Y8517498D1*
X10405216Y8521301D1*
X10420514D1*
X10428119Y8517498D1*
X10431922Y8513696D1*
X10435813Y8506002D1*
Y8498397D1*
X10431922Y8490704D1*
X10424317Y8479296D1*
X10386026Y8441005D1*
X10439615D1*
M02*
